<?xml version="1.0" encoding="UTF-8"?>
<svg version="1.1" xmlns="http://www.w3.org/2000/svg" width="186" height="49">
<path d="M0 0 C4.95 0 9.9 0 15 0 C21.15132605 6.15132605 21.15132605 6.15132605 21.3125 11.75 C21.25644442 16.59880729 20.37729752 19.34886755 17 23 C13.09515232 25.36346044 10.36490163 25.0150934 6 24 C5.67 26.97 5.34 29.94 5 33 C3.35 33 1.7 33 0 33 C0 22.11 0 11.22 0 0 Z M5 6 C4.63469768 9.12557959 4.63469768 9.12557959 4.8125 12.625 C4.83957031 13.81351563 4.86664063 15.00203125 4.89453125 16.2265625 C4.92933594 17.14179688 4.96414062 18.05703125 5 19 C10.28199593 20.19988045 10.28199593 20.19988045 15 18 C15.65666517 15.94734388 15.65666517 15.94734388 15.8125 13.625 C15.90144531 12.85414062 15.99039063 12.08328125 16.08203125 11.2890625 C15.9870756 8.63934772 15.48280165 7.19028218 14 5 C9.8554089 3.76544095 8.67850392 3.54766405 5 6 Z " fill="#7CB469" transform="translate(125,14)"/>
<path d="M0 0 C0.99 0 1.98 0 3 0 C4.57277973 4.2152474 6.13917792 8.43278979 7.69970703 12.65258789 C8.2314862 14.08780763 8.7650041 15.52238439 9.30029297 16.95629883 C10.06936227 19.01737601 10.83215096 21.08068392 11.59375 23.14453125 C11.83436157 23.78526077 12.07497314 24.4259903 12.32287598 25.08613586 C13.34897405 27.88352941 14 29.99163868 14 33 C12.35 33 10.7 33 9 33 C7.5393715 30.35261084 7 29.10551666 7 26 C6.34 26.33 5.68 26.66 5 27 C3.45976004 27.06950541 1.91665012 27.08452357 0.375 27.0625 C-0.85089844 27.04896484 -0.85089844 27.04896484 -2.1015625 27.03515625 C-2.72804688 27.02355469 -3.35453125 27.01195313 -4 27 C-4.66 28.98 -5.32 30.96 -6 33 C-7.98 33 -9.96 33 -12 33 C-11.3227011 28.8856619 -10.03379361 25.25748046 -8.49609375 21.38671875 C-8.2533522 20.77230423 -8.01061066 20.15788971 -7.76051331 19.52485657 C-6.9901095 17.57748441 -6.21390549 15.63248603 -5.4375 13.6875 C-4.91172353 12.36148105 -4.38632887 11.03531064 -3.86132812 9.70898438 C-2.5786321 6.47089192 -1.29072651 3.23490115 0 0 Z M1 11 C-0.32 14.63 -1.64 18.26 -3 22 C-0.36 22 2.28 22 5 22 C4.01 18.37 3.02 14.74 2 11 C1.67 11 1.34 11 1 11 Z " fill="#5DA348" transform="translate(14,5)"/>
<path d="M0 0 C3.8459751 2.64410788 4.81354872 4.20092308 5.875 8.75 C5.91625 9.8225 5.9575 10.895 6 12 C5 13 5 13 1.40234375 13.09765625 C-0.08596867 13.0909822 -1.57426432 13.07902183 -3.0625 13.0625 C-4.20041992 13.05573242 -4.20041992 13.05573242 -5.36132812 13.04882812 C-7.24091871 13.0370068 -9.12046899 13.01907078 -11 13 C-9.88145414 16.72614153 -9.88145414 16.72614153 -7 19 C-5.00047242 19.04346799 -2.99960012 19.039992 -1 19 C0.32 19 1.64 19 3 19 C3 20.32 3 21.64 3 23 C-1.7476642 24.96854369 -5.01113019 25.36060086 -10 24 C-14.45108221 20.63696011 -16.14746895 17.49408899 -17 12 C-16.38506856 7.54174706 -15.40114203 5.45984575 -12.4375 2.0625 C-8.58754533 -0.77778519 -4.59382803 -1.04059088 0 0 Z M-9.375 5.875 C-11.10124168 7.68654017 -11.10124168 7.68654017 -11 9 C-7.04 9 -3.08 9 1 9 C-0.52289621 4.7910997 -0.52289621 4.7910997 -3.875 4 C-7.09552849 3.6772686 -7.09552849 3.6772686 -9.375 5.875 Z " fill="#82B771" transform="translate(116,14)"/>
<path d="M0 0 C2.87029869 1.79393668 4.49131638 2.98263276 6 6 C6.48468147 11.37916974 6.91843858 16.29918781 4.3125 21.125 C0.81700738 23.95918321 -1.4574055 25.06427477 -6 24.875 C-9.4618 23.86530833 -11.39035137 22.46052585 -14 20 C-15.96010221 16.07979559 -15.3528633 11.28388424 -15 7 C-11.98942268 -0.02468041 -7.05357825 -1.03947469 0 0 Z M-8.8125 5.5 C-10.4971479 9.04662716 -10.57735621 12.14041327 -10 16 C-8.99963019 18.56008963 -8.99963019 18.56008963 -7 20 C-4.5 20.66666667 -4.5 20.66666667 -2 20 C0.1446305 18.22513338 0.87365521 16.84460623 1.28515625 14.09375 C1.42728557 10.78151898 1.24703256 8.52006854 -0.1875 5.5 C-1.94285404 3.80598594 -1.94285404 3.80598594 -4.5 3.5 C-7.05714596 3.80598594 -7.05714596 3.80598594 -8.8125 5.5 Z " fill="#4B9833" transform="translate(176,14)"/>
<path d="M0 0 C0.99 -0.33 1.98 -0.66 3 -1 C9.50972835 1.91480374 17.19560327 7.35800776 20 14 C21.05702398 19.32916259 21.78186785 24.09082145 19 29 C18.01 28.67 17.02 28.34 16 28 C16.03480469 27.27554687 16.06960937 26.55109375 16.10546875 25.8046875 C16.36556212 17.9466821 16.36556212 17.9466821 13 11 C10.26330417 8.84557988 8.08482204 7.26387563 4.6875 6.4375 C4.130625 6.293125 3.57375 6.14875 3 6 C2.67 5.01 2.34 4.02 2 3 C1.34 3 0.68 3 0 3 C-0.33 3.99 -0.66 4.98 -1 6 C-1.99 6.495 -1.99 6.495 -3 7 C-2.649375 7.556875 -2.29875 8.11375 -1.9375 8.6875 C-0.73499805 11.65367147 -0.94801842 12.99433836 -2 16 C-4.0625 18.3125 -4.0625 18.3125 -6 20 C-9.2371215 16.7628785 -11.35747456 14.63193161 -11.5 9.9375 C-11.00023489 6.00184972 -10.49880468 4.03426282 -8 1 C-4.94298017 -1.16949795 -3.48798608 -1.01264112 0 0 Z M-7 8 C-6 11 -6 11 -6 11 Z M-6 11 C-5 13 -5 13 -5 13 Z " fill="#4B9F35" transform="translate(64,4)"/>
<path d="M0 0 C0.78503906 0.00644531 1.57007813 0.01289063 2.37890625 0.01953125 C4.4375 0.1875 4.4375 0.1875 6.4375 1.1875 C6.1075 2.8375 5.7775 4.4875 5.4375 6.1875 C3.1275 5.8575 0.8175 5.5275 -1.5625 5.1875 C-1.5625 6.1775 -1.5625 7.1675 -1.5625 8.1875 C0.18994604 9.40412729 0.18994604 9.40412729 2.375 10.4375 C5.78289498 12.44107591 6.30834071 12.81939602 7.6875 16.75 C7.4375 20.1875 7.4375 20.1875 5.875 22.5625 C2.90255217 24.54413188 1.0067063 25.04473175 -2.5625 25.1875 C-5.9375 24.25 -5.9375 24.25 -8.5625 23.1875 C-8.2325 21.5375 -7.9025 19.8875 -7.5625 18.1875 C-3.1075 19.1775 -3.1075 19.1775 1.4375 20.1875 C1.40656827 17.77164426 1.40656827 17.77164426 0.4375 15.1875 C-1.52716413 14.11974776 -3.53105359 13.12196535 -5.5625 12.1875 C-7.5 10.375 -7.5 10.375 -8.5625 8.1875 C-8.4375 5.0625 -8.4375 5.0625 -7.5625 2.1875 C-4.404724 0.082316 -3.60852866 -0.06539344 0 0 Z " fill="#60A44B" transform="translate(37.5625,13.8125)"/>
<path d="M0 0 C1.65 0 3.3 0 5 0 C5.02187378 1.15786011 5.02187378 1.15786011 5.04418945 2.33911133 C5.11858033 5.83075093 5.2152709 9.3214249 5.3125 12.8125 C5.33505859 14.02744141 5.35761719 15.24238281 5.38085938 16.49414062 C5.41630859 17.65751953 5.45175781 18.82089844 5.48828125 20.01953125 C5.51446533 21.09307861 5.54064941 22.16662598 5.56762695 23.27270508 C6.05484376 26.34593995 6.73121313 27.01570051 9 29 C9.1875 31.6875 9.1875 31.6875 9 34 C2.38522305 32.53004957 2.38522305 32.53004957 0.78564453 30.32910156 C-0.23976332 27.28920383 -0.2244731 24.69204047 -0.1953125 21.484375 C-0.18886719 20.23398437 -0.18242188 18.98359375 -0.17578125 17.6953125 C-0.15902344 16.39335937 -0.14226562 15.09140625 -0.125 13.75 C-0.11597656 12.43257812 -0.10695313 11.11515625 -0.09765625 9.7578125 C-0.07408533 6.50502538 -0.04118022 3.25260411 0 0 Z " fill="#65A750" transform="translate(88,5)"/>
<path d="M0 0 C2.97 0 5.94 0 9 0 C9 7.92 9 15.84 9 24 C7.35 24 5.7 24 4 24 C3 23 3 23 2.90234375 19.18359375 C2.90901911 17.60153318 2.92098125 16.01948841 2.9375 14.4375 C2.94201172 13.63119141 2.94652344 12.82488281 2.95117188 11.99414062 C2.96299482 9.99606244 2.98093086 7.99802217 3 6 C2.01 5.67 1.02 5.34 0 5 C0 3.35 0 1.7 0 0 Z " fill="#C8DEC0" transform="translate(148,14)"/>
<path d="M0 0 C1.9375 0.625 1.9375 0.625 4 2 C5 4.75 5 4.75 5 8 C3.71488126 10.03131672 2.38123963 12.03277992 1 14 C0.43762034 17.84292766 1.40218431 20.50477817 3 24 C0.8125 24.375 0.8125 24.375 -2 24 C-4.875 21.375 -4.875 21.375 -7 18 C-7 13.47651327 -5.37252423 10.7412882 -3 7 C-1.93227309 4.69061782 -0.96910418 2.35353873 0 0 Z " fill="#265E19" transform="translate(71,20)"/>
<path d="M0 0 C0.99 0 1.98 0 3 0 C3 0.66 3 1.32 3 2 C3.90363281 1.97679688 4.80726562 1.95359375 5.73828125 1.9296875 C6.91777344 1.91164063 8.09726563 1.89359375 9.3125 1.875 C11.07013672 1.84019531 11.07013672 1.84019531 12.86328125 1.8046875 C16 2 16 2 19 4 C13.72 4 8.44 4 3 4 C3 5.32 3 6.64 3 8 C3.66 8 4.32 8 5 8 C5.4125 8.495 5.825 8.99 6.25 9.5 C8.79263348 11.67940012 10.73778313 11.19972756 14 11 C15.32 11 16.64 11 18 11 C18 12.32 18 13.64 18 15 C13.2523358 16.96854369 9.98886981 17.36060086 5 16 C2.0625 14.125 2.0625 14.125 0 11 C-0.40650235 7.29457476 -0.2924598 3.71098986 0 0 Z " fill="#72AF60" transform="translate(101,22)"/>
<path d="M0 0 C2.25 -0.3125 2.25 -0.3125 5 0 C7.375 2.1875 7.375 2.1875 9 5 C8.89914128 9.03434892 7.08241871 11.63609285 5 15 C3.93414728 17.31015137 2.96906883 19.64654713 2 22 C0.0625 21.3125 0.0625 21.3125 -2 20 C-3 17.8125 -3 17.8125 -3 15 C-1.9701415 13.29429686 -0.93720427 11.58986554 0.140625 9.9140625 C1.67687805 6.49240799 0.75458167 3.58426294 0 0 Z " fill="#5B8D50" transform="translate(62,11)"/>
<path d="M0 0 C2.31 0.33 4.62 0.66 7 1 C7 1.66 7 2.32 7 3 C8.65 3 10.3 3 12 3 C12.33 3.66 12.66 4.32 13 5 C10.69 5.33 8.38 5.66 6 6 C5.67 10.29 5.34 14.58 5 19 C5.66 19.33 6.32 19.66 7 20 C5.35 20 3.7 20 2 20 C2.01740234 18.06833984 2.01740234 18.06833984 2.03515625 16.09765625 C2.0445327 14.41927228 2.05363305 12.74088674 2.0625 11.0625 C2.07087891 10.21236328 2.07925781 9.36222656 2.08789062 8.48632812 C2.09272461 7.27299805 2.09272461 7.27299805 2.09765625 6.03515625 C2.10551147 4.91185913 2.10551147 4.91185913 2.11352539 3.76586914 C2.19341752 1.97332261 2.19341752 1.97332261 1 1 C1 11.23 1 21.46 1 32 C1.99 32 2.98 32 4 32 C4 28.7 4 25.4 4 22 C4.66 22.33 5.32 22.66 6 23 C5.67 26.3 5.34 29.6 5 33 C3.35 33 1.7 33 0 33 C0 22.11 0 11.22 0 0 Z " fill="#80B76F" transform="translate(125,14)"/>
<path d="M0 0 C0.66 0 1.32 0 2 0 C3 3 3 3 2.375 5.125 C1.80693818 9.48014062 3.47195691 12.96051974 5 17 C5.33 17.99 5.66 18.98 6 20 C8.3430809 21.12085312 8.3430809 21.12085312 11 22 C12.34050052 22.65213539 13.67661368 23.31379969 15 24 C15 24.99 15 25.98 15 27 C9.12655243 27 6.10675703 23.90466103 1.953125 20.203125 C-1.24188028 16.59915905 -2.2831677 13.20535705 -2.25 8.4375 C-2.25515625 7.69371094 -2.2603125 6.94992188 -2.265625 6.18359375 C-1.97020118 3.75503617 -1.20662778 2.11159861 0 0 Z " fill="#78B16A" transform="translate(50,16)"/>
<path d="M0 0 C5.92939046 0.35576343 8.80630075 1.80630075 13 6 C16.63106941 10.38232515 17.03631813 15.46148457 17 21 C16.0625 24.125 16.0625 24.125 15 26 C14.01 25.67 13.02 25.34 12 25 C12.03480469 24.27554687 12.06960937 23.55109375 12.10546875 22.8046875 C12.41485647 14.90703719 12.41485647 14.90703719 9 8 C6.68444878 6.29618128 4.33566948 4.76374649 1.86328125 3.296875 C1.24839844 2.86890625 0.63351563 2.4409375 0 2 C0 1.34 0 0.68 0 0 Z " fill="#5C9751" transform="translate(68,7)"/>
<path d="M0 0 C3 1 3 1 5 4 C5.33957563 8.07490752 5.31332486 9.53001271 3 13 C3.99 14.485 3.99 14.485 5 16 C5 16.99 5 17.98 5 19 C3.68 19 2.36 19 1 19 C0.1533966 17.61217515 -0.67675339 16.21430603 -1.5 14.8125 C-1.9640625 14.03519531 -2.428125 13.25789063 -2.90625 12.45703125 C-4.10729647 9.75896614 -4.20741043 7.9193018 -4 5 C-3.34 5 -2.68 5 -2 5 C-1.7834375 4.0409375 -1.7834375 4.0409375 -1.5625 3.0625 C-1 1 -1 1 0 0 Z M-1 6 C-0.34 7.32 0.32 8.64 1 10 C0.67 8.68 0.34 7.36 0 6 C-0.33 6 -0.66 6 -1 6 Z " fill="#627261" transform="translate(76,29)"/>
<path d="M0 0 C2.32100162 3.48150244 3.67675155 7.10566684 5.125 11 C5.54072266 12.08667969 5.54072266 12.08667969 5.96484375 13.1953125 C7.11095711 16.25537872 8 18.70542099 8 22 C6.35 22 4.7 22 3 22 C1.5393715 19.35261084 1 18.10551666 1 15 C0.01 15.495 0.01 15.495 -1 16 C-2.70702735 16.06996014 -4.41668003 16.08440154 -6.125 16.0625 C-7.03507813 16.05347656 -7.94515625 16.04445313 -8.8828125 16.03515625 C-9.93082031 16.01775391 -9.93082031 16.01775391 -11 16 C-11 15.34 -11 14.68 -11 14 C-6.71 14 -2.42 14 2 14 C2.33 12.35 2.66 10.7 3 9 C2.34 9 1.68 9 1 9 C0.67 8.01 0.34 7.02 0 6 C-0.66 7.32 -1.32 8.64 -2 10 C-2.33 8.02 -2.66 6.04 -3 4 C-2.34 3.67 -1.68 3.34 -1 3 C-0.67 2.01 -0.34 1.02 0 0 Z " fill="#87BA76" transform="translate(20,16)"/>
<path d="M0 0 C0.99 0 1.98 0 3 0 C5.32637691 5.79622721 6.43680971 9.86090397 5 16 C4.01 15.67 3.02 15.34 2 15 C1.67 14.34 1.34 13.68 1 13 C0.01 14.485 0.01 14.485 -1 16 C-2.32 15.67 -3.64 15.34 -5 15 C-3.33333333 10 -1.66666667 5 0 0 Z " fill="#61A44C" transform="translate(14,5)"/>
<path d="M0 0 C0.598125 0.185625 1.19625 0.37125 1.8125 0.5625 C4.16408762 1.22093687 4.16408762 1.22093687 7 0 C8.48400777 2.35695352 9.01570001 3.68599981 8.875 6.5 C7.8281942 9.49087373 6.36678851 10.93860355 4 13 C2 11.5625 2 11.5625 0 9 C-0.35442445 5.97175582 -0.23347235 3.03514061 0 0 Z M4 4 C5 6 5 6 5 6 Z " fill="#59B23E" transform="translate(54,11)"/>
<path d="M0 0 C0.33 0.99 0.66 1.98 1 3 C-0.11375 3.103125 -1.2275 3.20625 -2.375 3.3125 C-3.57125 3.539375 -4.7675 3.76625 -6 4 C-6.99 5.485 -6.99 5.485 -8 7 C-8.66 7 -9.32 7 -10 7 C-10 9.97 -10 12.94 -10 16 C-10.99 16 -11.98 16 -13 16 C-13.05406122 14.06280622 -13.09282025 12.12518079 -13.125 10.1875 C-13.14820313 9.10855469 -13.17140625 8.02960937 -13.1953125 6.91796875 C-13 4 -13 4 -11 1 C-7.47639547 -0.43554259 -3.74800535 -0.07207703 0 0 Z " fill="#358C1C" transform="translate(175,15)"/>
<path d="M0 0 C7.01588929 -0.59456689 7.01588929 -0.59456689 11 1.8125 C13.91293024 6.45498257 13.42081874 10.66027777 13 16 C12.01 16 11.02 16 10 16 C9.87625 14.14375 9.87625 14.14375 9.75 12.25 C9.36714994 9.33206172 9.01775738 8.02731905 7.375 5.5 C4.15823462 3.46835871 1.72696129 3.71331067 -2 4 C-1.34 2.68 -0.68 1.36 0 0 Z " fill="#2D8713" transform="translate(132,14)"/>
<path d="M0 0 C2.31 0 4.62 0 7 0 C7 7.26 7 14.52 7 22 C6.01 22 5.02 22 4 22 C4 15.73 4 9.46 4 3 C2.68 3 1.36 3 0 3 C0 2.01 0 1.02 0 0 Z " fill="#328A16" transform="translate(149,15)"/>
<path d="M0 0 C0.33 0 0.66 0 1 0 C0.875 3.3125 0.875 3.3125 0 7 C-2.5 9.0625 -2.5 9.0625 -6 10 C-9.10617557 9.64587575 -12.01651985 8.92156387 -15 8 C-14.67 6.35 -14.34 4.7 -14 3 C-9.545 3.99 -9.545 3.99 -5 5 C-4.34 3.68 -3.68 2.36 -3 1 C-3 1.99 -3 2.98 -3 4 C-2.01 4 -1.02 4 0 4 C0 2.68 0 1.36 0 0 Z " fill="#88BB79" transform="translate(44,29)"/>
<path d="M0 0 C0.99 0.33 1.98 0.66 3 1 C2.34 1 1.68 1 1 1 C1 6.94 1 12.88 1 19 C2.60875 19.12375 4.2175 19.2475 5.875 19.375 C10.75 19.75 10.75 19.75 13 22 C5.25 22.125 5.25 22.125 3 21 C3 24.3 3 27.6 3 31 C2.01 31 1.02 31 0 31 C0 20.77 0 10.54 0 0 Z " fill="#238107" transform="translate(126,15)"/>
<path d="M0 0 C0.33 0 0.66 0 1 0 C1 3.3 1 6.6 1 10 C1.99 10 2.98 10 4 10 C4 7.03 4 4.06 4 1 C4.33 1 4.66 1 5 1 C5.66 4.3 6.32 7.6 7 11 C8.98 11.66 10.96 12.32 13 13 C13 13.33 13 13.66 13 14 C11.35 14.33 9.7 14.66 8 15 C10.97 15.495 10.97 15.495 14 16 C14.33 15.34 14.66 14.68 15 14 C15.66 14.66 16.32 15.32 17 16 C12.92619746 18.03690127 10.38431207 18.27875769 6 17 C1.42372881 13.84745763 1.42372881 13.84745763 0 11 C-0.07033769 9.12620395 -0.0843022 7.24998898 -0.0625 5.375 C-0.05347656 4.37210938 -0.04445312 3.36921875 -0.03515625 2.3359375 C-0.02355469 1.56507812 -0.01195312 0.79421875 0 0 Z " fill="#84B873" transform="translate(161,21)"/>
<path d="M0 0 C0.78503906 0.00644531 1.57007813 0.01289063 2.37890625 0.01953125 C4.4375 0.1875 4.4375 0.1875 6.4375 1.1875 C6.1075 2.8375 5.7775 4.4875 5.4375 6.1875 C4.344375 5.98125 3.25125 5.775 2.125 5.5625 C-1.6463401 4.78403475 -1.6463401 4.78403475 -4.5625 7.1875 C-4.5625 6.5275 -4.5625 5.8675 -4.5625 5.1875 C-5.2225 5.1875 -5.8825 5.1875 -6.5625 5.1875 C-6.5625 6.8375 -6.5625 8.4875 -6.5625 10.1875 C-7.2225 9.5275 -7.8825 8.8675 -8.5625 8.1875 C-8.375 5.1875 -8.375 5.1875 -7.5625 2.1875 C-4.404724 0.082316 -3.60852866 -0.06539344 0 0 Z " fill="#67A853" transform="translate(37.5625,13.8125)"/>
<path d="M0 0 C0.99 0 1.98 0 3 0 C3 0.66 3 1.32 3 2 C3.90363281 1.97679688 4.80726562 1.95359375 5.73828125 1.9296875 C6.91777344 1.91164063 8.09726563 1.89359375 9.3125 1.875 C11.07013672 1.84019531 11.07013672 1.84019531 12.86328125 1.8046875 C16 2 16 2 19 4 C13.72 4 8.44 4 3 4 C3.33 5.65 3.66 7.3 4 9 C3.67 9.99 3.34 10.98 3 12 C2.01 11.67 1.02 11.34 0 11 C0 7.37 0 3.74 0 0 Z " fill="#29850C" transform="translate(101,22)"/>
<path d="M0 0 C0.33 0 0.66 0 1 0 C1.33 1.98 1.66 3.96 2 6 C3.32 4.68 4.64 3.36 6 2 C7.12880057 5.31114834 8.21302675 8.58978257 9 12 C6.8125 12.375 6.8125 12.375 4 12 C1.125 9.375 1.125 9.375 -1 6 C-0.8125 2.625 -0.8125 2.625 0 0 Z " fill="#5A7854" transform="translate(65,32)"/>
<path d="M0 0 C1.32 0.33 2.64 0.66 4 1 C4 1.66 4 2.32 4 3 C4.7425 3.28875 5.485 3.5775 6.25 3.875 C8.56739797 4.82302644 10.77917115 5.84845911 13 7 C13 7.99 13 8.98 13 10 C7.76919965 9.74483901 5.13740322 7.85862875 1.3203125 4.5703125 C0 3 0 3 0 0 Z " fill="#51844B" transform="translate(52,33)"/>
<path d="M0 0 C3 1 3 1 5 4 C5.125 7.1875 5.125 7.1875 5 10 C3.68 10 2.36 10 1 10 C-0.8125 7.75 -0.8125 7.75 -2 5 C-1.75495152 2.79456367 -1.57580336 1.57580336 0 0 Z " fill="#385534" transform="translate(76,29)"/>
<path d="M0 0 C8.03501094 -0.63019694 8.03501094 -0.63019694 12.0625 2 C12.701875 2.66 13.34125 3.32 14 4 C13.67 4.99 13.34 5.98 13 7 C12.34 7 11.68 7 11 7 C11 9.97 11 12.94 11 16 C10.67 16 10.34 16 10 16 C9.66307215 14.39658445 9.33058907 12.79223445 9 11.1875 C8.814375 10.29417969 8.62875 9.40085937 8.4375 8.48046875 C7.99059746 5.94669098 8 3.56493265 8 1 C3.545 1.495 3.545 1.495 -1 2 C-0.67 1.34 -0.34 0.68 0 0 Z " fill="#82B771" transform="translate(167,14)"/>
<path d="M0 0 C2 2 2 2 2.1875 4.5625 C2 7 2 7 1 8 C-1.69654854 8.07319621 -4.36691458 8.09242537 -7.0625 8.0625 C-8.20041992 8.05573242 -8.20041992 8.05573242 -9.36132812 8.04882812 C-11.24091871 8.0370068 -13.12046899 8.01907078 -15 8 C-15.33 8.99 -15.66 9.98 -16 11 C-16 9.68 -16 8.36 -16 7 C-9.565 6.505 -9.565 6.505 -3 6 C-3.33 4.35 -3.66 2.7 -4 1 C-2.125 0.375 -2.125 0.375 0 0 Z " fill="#8FBE7E" transform="translate(120,19)"/>
<path d="M0 0 C1.4370809 -0.05422947 2.87475462 -0.09289723 4.3125 -0.125 C5.11300781 -0.14820313 5.91351563 -0.17140625 6.73828125 -0.1953125 C9 0 9 0 12 2 C12.1875 4.625 12.1875 4.625 12 7 C9.69 6.01 7.38 5.02 5 4 C5 3.34 5 2.68 5 2 C3.35 1.67 1.7 1.34 0 1 C0 0.67 0 0.34 0 0 Z " fill="#44942C" transform="translate(108,15)"/>
<path d="M0 0 C0 1.32 0 2.64 0 4 C-4.76052962 5.97387813 -7.96488101 6.0070238 -13 5 C-13 4.67 -13 4.34 -13 4 C-10.03 4 -7.06 4 -4 4 C-4 3.34 -4 2.68 -4 2 C-5.98 2 -7.96 2 -10 2 C-10 1.67 -10 1.34 -10 1 C-3.375 -1.125 -3.375 -1.125 0 0 Z " fill="#93C186" transform="translate(119,33)"/>
<path d="M0 0 C1.9078584 3.1749094 2.1609041 5.10585211 1.625 8.75 C1.51414063 9.54921875 1.40328125 10.3484375 1.2890625 11.171875 C1.19367188 11.77515625 1.09828125 12.3784375 1 13 C0.01 13 -0.98 13 -2 13 C-2 9.04 -2 5.08 -2 1 C-1.34 0.67 -0.68 0.34 0 0 Z " fill="#368D1A" transform="translate(164,18)"/>
<path d="M0 0 C1.61949011 2.57213134 2.04408751 3.67669159 1.625 6.75 C1.41875 7.4925 1.2125 8.235 1 9 C1.66 9 2.32 9 3 9 C2.67 9.99 2.34 10.98 2 12 C0.0625 11.3125 0.0625 11.3125 -2 10 C-2.9375 7.6875 -2.9375 7.6875 -3 5 C-1.5625 2.1875 -1.5625 2.1875 0 0 Z " fill="#65AD51" transform="translate(62,21)"/>
<path d="M0 0 C0.33 0 0.66 0 1 0 C1.33 2.31 1.66 4.62 2 7 C1.34 7 0.68 7 0 7 C0.50603992 9.16874252 0.99983813 10.99967627 2 13 C0.02 13 -1.96 13 -4 13 C-3.27991594 8.39146203 -1.68704061 4.32762591 0 0 Z " fill="#81B76F" transform="translate(6,25)"/>
<path d="M0 0 C9.75 0.75 9.75 0.75 12 3 C8.7 3 5.4 3 2 3 C1.67 5.64 1.34 8.28 1 11 C0.67 11 0.34 11 0 11 C0 7.37 0 3.74 0 0 Z " fill="#2B860F" transform="translate(127,34)"/>
<path d="M0 0 C0.33 0 0.66 0 1 0 C1 1.65 1 3.3 1 5 C1.66 5 2.32 5 3 5 C2.67 6.65 2.34 8.3 2 10 C-2.29 10 -6.58 10 -11 10 C-11 9.67 -11 9.34 -11 9 C-5.555 8.505 -5.555 8.505 0 8 C-0.185625 7.05125 -0.37125 6.1025 -0.5625 5.125 C-1 2 -1 2 0 0 Z " fill="#27840B" transform="translate(20,20)"/>
<path d="M0 0 C1.66611905 -0.042721 3.33382885 -0.04063832 5 0 C6 1 6 1 6.0625 4.0625 C6.041875 5.031875 6.02125 6.00125 6 7 C5.01 7 4.02 7 3 7 C3 6.01 3 5.02 3 4 C2.01 3.67 1.02 3.34 0 3 C0 2.01 0 1.02 0 0 Z " fill="#409226" transform="translate(38,26)"/>
<path d="M0 0 C2.475 0.495 2.475 0.495 5 1 C5.33 2.98 5.66 4.96 6 7 C4.35 7 2.7 7 1 7 C0.67 4.69 0.34 2.38 0 0 Z " fill="#569F41" transform="translate(22,31)"/>
<path d="M0 0 C0.66 0 1.32 0 2 0 C3.55136786 2.46393719 4.03039129 3.68089146 3.75 6.625 C3 9 3 9 1 11 C0.66666667 9.33333333 0.33333333 7.66666667 0 6 C-0.20625 5.0925 -0.4125 4.185 -0.625 3.25 C-0.74875 2.5075 -0.8725 1.765 -1 1 C-0.67 0.67 -0.34 0.34 0 0 Z " fill="#72996C" transform="translate(59,11)"/>
<path d="M0 0 C1.65 0 3.3 0 5 0 C5.33 0.66 5.66 1.32 6 2 C5.67 2.66 5.34 3.32 5 4 C4.34 4 3.68 4 3 4 C3 5.32 3 6.64 3 8 C3.66 8.33 4.32 8.66 5 9 C4.34 9.66 3.68 10.32 3 11 C2.34 10.67 1.68 10.34 1 10 C1.020625 9.0925 1.04125 8.185 1.0625 7.25 C1.0110245 4.57327412 0.7784983 2.53011948 0 0 Z " fill="#72BE5A" transform="translate(62,11)"/>
<path d="M0 0 C1.32 0.66 2.64 1.32 4 2 C3.67 3.32 3.34 4.64 3 6 C1.68 6 0.36 6 -1 6 C-1.625 4.125 -1.625 4.125 -2 2 C-1.34 1.34 -0.68 0.68 0 0 Z " fill="#7BB36B" transform="translate(153,5)"/>
<path d="M0 0 C2.46800047 1.15173355 4.04783565 2.04783565 6 4 C5.01 4 4.02 4 3 4 C3.33 4.99 3.66 5.98 4 7 C3.34 7 2.68 7 2 7 C1.67 6.01 1.34 5.02 1 4 C0.34 4 -0.32 4 -1 4 C-1.33 4.66 -1.66 5.32 -2 6 C-2.66 5.34 -3.32 4.68 -4 4 C-2.68 2.68 -1.36 1.36 0 0 Z " fill="#C6DCC0" transform="translate(65,3)"/>
<path d="M0 0 C1.625 2 1.625 2 3 4 C-1.07369424 6.03684712 -3.58937864 6.0257259 -8 5 C-8 4.67 -8 4.34 -8 4 C-6.02 3.67 -4.04 3.34 -2 3 C-3.65 2.67 -5.3 2.34 -7 2 C-7 1.67 -7 1.34 -7 1 C-2.25 0 -2.25 0 0 0 Z " fill="#90BF80" transform="translate(139,33)"/>
<path d="M0 0 C1.32 0.33 2.64 0.66 4 1 C4 1.66 4 2.32 4 3 C5.65 3 7.3 3 9 3 C9.33 3.66 9.66 4.32 10 5 C2.25 5.125 2.25 5.125 0 4 C0 2.68 0 1.36 0 0 Z " fill="#409228" transform="translate(30,32)"/>
<path d="M0 0 C1.485 0.99 1.485 0.99 3 2 C2.67 4.31 2.34 6.62 2 9 C1.01 8.67 0.02 8.34 -1 8 C-1.125 2.25 -1.125 2.25 0 0 Z " fill="#4B9933" transform="translate(17,12)"/>
<path d="M0 0 C0.33 0.66 0.66 1.32 1 2 C1.66 2 2.32 2 3 2 C2.67 4.97 2.34 7.94 2 11 C1.34 11 0.68 11 0 11 C0 7.37 0 3.74 0 0 Z " fill="#517B4C" transform="translate(82,20)"/>
<path d="M0 0 C0.66 0 1.32 0 2 0 C2 3.63 2 7.26 2 11 C1.01 11 0.02 11 -1 11 C-1.0270043 9.54176788 -1.04639787 8.08339325 -1.0625 6.625 C-1.07410156 5.81289063 -1.08570313 5.00078125 -1.09765625 4.1640625 C-1 2 -1 2 0 0 Z " fill="#2E8812" transform="translate(143,19)"/>
<path d="M0 0 C2 2 2 2 2.1953125 3.9453125 C2.13020833 5.96354167 2.06510417 7.98177083 2 10 C1.01 10 0.02 10 -1 10 C-1.02689216 8.52093108 -1.04634621 7.04172517 -1.0625 5.5625 C-1.07410156 4.73878906 -1.08570313 3.91507813 -1.09765625 3.06640625 C-1 1 -1 1 0 0 Z " fill="#30721F" transform="translate(64,20)"/>
<path d="M0 0 C6.75 0.75 6.75 0.75 9 3 C7.3125 4.1875 7.3125 4.1875 5 5 C2.25 3.75 2.25 3.75 0 2 C0 1.34 0 0.68 0 0 Z " fill="#6FB55D" transform="translate(68,7)"/>
<path d="M0 0 C0.33 1.32 0.66 2.64 1 4 C1.66 4.33 2.32 4.66 3 5 C1.515 7.475 1.515 7.475 0 10 C-0.99 9.67 -1.98 9.34 -3 9 C-2.01 6.03 -1.02 3.06 0 0 Z " fill="#68AB54" transform="translate(69,23)"/>
<path d="M0 0 C0.66 0.99 1.32 1.98 2 3 C2.99 3 3.98 3 5 3 C4.34 4.65 3.68 6.3 3 8 C1.35 7.67 -0.3 7.34 -2 7 C-1.34 4.69 -0.68 2.38 0 0 Z " fill="#8CBD7B" transform="translate(11,13)"/>
<path d="M0 0 C1.98 0 3.96 0 6 0 C6.33 1.32 6.66 2.64 7 4 C4.03 3.505 4.03 3.505 1 3 C0.67 2.01 0.34 1.02 0 0 Z " fill="#62845E" transform="translate(58,39)"/>
<path d="M0 0 C0.99 0.33 1.98 0.66 3 1 C3.33 2.98 3.66 4.96 4 7 C3.01 7.495 3.01 7.495 2 8 C-0.1519437 4.77208445 -0.20086443 3.71599191 0 0 Z " fill="#50654E" transform="translate(72,34)"/>
<path d="M0 0 C0.33 0.66 0.66 1.32 1 2 C1.66 2 2.32 2 3 2 C3.33 3.32 3.66 4.64 4 6 C2.68 6.33 1.36 6.66 0 7 C-0.93423645 3.98968256 -1.04449911 3.13349732 0 0 Z " fill="#5BA147" transform="translate(140,29)"/>
<path d="M0 0 C0.433125 0.9590625 0.433125 0.9590625 0.875 1.9375 C1.82823451 4.15206079 1.82823451 4.15206079 4 5 C3.01 5.495 3.01 5.495 2 6 C1.01 5.67 0.02 5.34 -1 5 C-1 7.31 -1 9.62 -1 12 C-1.33 12 -1.66 12 -2 12 C-2.28571429 3.42857143 -2.28571429 3.42857143 0 0 Z " fill="#95D581" transform="translate(55,6)"/>
<path d="M0 0 C0 0.66 0 1.32 0 2 C-2.97 2 -5.94 2 -9 2 C-9.33 1.34 -9.66 0.68 -10 0 C-6.30581799 -1.231394 -3.7943739 -0.64432764 0 0 Z " fill="#238207" transform="translate(115,35)"/>
<path d="M0 0 C0.99 0.33 1.98 0.66 3 1 C3 1.66 3 2.32 3 3 C2.34 3 1.68 3 1 3 C0.67 4.32 0.34 5.64 0 7 C-0.66 6.34 -1.32 5.68 -2 5 C-1.46428571 1.46428571 -1.46428571 1.46428571 0 0 Z " fill="#6E856A" transform="translate(76,29)"/>
<path d="M0 0 C1.9375 0.625 1.9375 0.625 4 2 C4.875 5 4.875 5 5 8 C4.34 8.66 3.68 9.32 3 10 C2.87625 8.865625 2.7525 7.73125 2.625 6.5625 C2.41875 5.386875 2.2125 4.21125 2 3 C1.34 2.67 0.68 2.34 0 2 C0 1.34 0 0.68 0 0 Z " fill="#83A57A" transform="translate(71,20)"/>
<path d="M0 0 C0.66 0.33 1.32 0.66 2 1 C1.74438677 3.3431213 1.40729228 5.67843403 1 8 C0.01 8.495 0.01 8.495 -1 9 C-1.33 6.69 -1.66 4.38 -2 2 C-1.34 2 -0.68 2 0 2 C0 1.34 0 0.68 0 0 Z " fill="#39961D" transform="translate(67,13)"/>
<path d="M0 0 C0 1.65 0 3.3 0 5 C-0.99 5 -1.98 5 -3 5 C-3.33 3.68 -3.66 2.36 -4 1 C-2 0 -2 0 0 0 Z " fill="#49833E" transform="translate(60,18)"/>
<path d="M0 0 C7.38461538 -0.49230769 7.38461538 -0.49230769 10.5 2 C10.995 2.66 11.49 3.32 12 4 C10.35 3.67 8.7 3.34 7 3 C7 2.34 7 1.68 7 1 C4.69 1 2.38 1 0 1 C0 0.67 0 0.34 0 0 Z " fill="#91C083" transform="translate(132,14)"/>
<path d="M0 0 C-0.33 1.32 -0.66 2.64 -1 4 C-3.97 3.505 -3.97 3.505 -7 3 C-3.375 0 -3.375 0 0 0 Z " fill="#86C970" transform="translate(63,3)"/>
<path d="M0 0 C0.33 0 0.66 0 1 0 C1.33 3.96 1.66 7.92 2 12 C1.01 11.67 0.02 11.34 -1 11 C-0.67 7.37 -0.34 3.74 0 0 Z " fill="#8AA584" transform="translate(81,21)"/>
<path d="M0 0 C1.9078584 3.1749094 2.1609041 5.10585211 1.625 8.75 C1.51414063 9.54921875 1.40328125 10.3484375 1.2890625 11.171875 C1.19367188 11.77515625 1.09828125 12.3784375 1 13 C0.67 13 0.34 13 0 13 C-0.19397476 11.02145742 -0.38001321 9.0421352 -0.5625 7.0625 C-0.66691406 5.96035156 -0.77132812 4.85820312 -0.87890625 3.72265625 C-0.91886719 2.82417969 -0.95882812 1.92570312 -1 1 C-0.67 0.67 -0.34 0.34 0 0 Z " fill="#258208" transform="translate(164,18)"/>
<path d="M0 0 C1.32 0.33 2.64 0.66 4 1 C3.67 2.32 3.34 3.64 3 5 C2.01 5 1.02 5 0 5 C0 3.35 0 1.7 0 0 Z " fill="#287815" transform="translate(70,22)"/>
<path d="M0 0 C0.66 0.33 1.32 0.66 2 1 C1.34 3.64 0.68 6.28 0 9 C-0.66 8.34 -1.32 7.68 -2 7 C-1.43181818 1.43181818 -1.43181818 1.43181818 0 0 Z " fill="#87BA77" transform="translate(31,15)"/>
<path d="M0 0 C2.475 0.99 2.475 0.99 5 2 C4.01 3.32 3.02 4.64 2 6 C1.01 5.01 0.02 4.02 -1 3 C-0.67 2.01 -0.34 1.02 0 0 Z " fill="#72AE5F" transform="translate(164,16)"/>
</svg>
