<?xml version="1.0" encoding="UTF-8"?>
<svg version="1.1" xmlns="http://www.w3.org/2000/svg" width="512" height="512">
<path d="M0 0 C0.9434024 -0.00204437 1.88680481 -0.00408875 2.85879517 -0.00619507 C5.97019081 -0.00919332 9.08105003 0.00929543 12.19238281 0.02832031 C14.40342072 0.03138905 16.61446058 0.03325667 18.82550049 0.03399658 C23.47911932 0.03859917 28.13256514 0.05298815 32.78613281 0.07519531 C38.60438861 0.10288896 44.42250678 0.11427096 50.24082184 0.11899567 C79.88654574 0.14564532 109.5106473 0.56046651 139.14550781 1.35644531 C136.74511192 3.75684121 135.07588396 4.09470607 131.83300781 5.04394531 C120.56731707 8.70023536 110.97541179 14.5111147 102.14550781 22.35644531 C101.51 22.92105469 100.87449219 23.48566406 100.21972656 24.06738281 C92.1948117 31.6474576 86.84275245 41.32876923 81.58300781 50.91894531 C80.35260602 53.13773244 79.12213532 55.35648136 77.89160156 57.57519531 C77.2701123 58.70054688 76.64862305 59.82589844 76.00830078 60.98535156 C73.06886622 66.30484206 70.11036379 71.61358929 67.14550781 76.91894531 C66.56929687 77.95083984 65.99308594 78.98273438 65.39941406 80.04589844 C61.37868633 87.22128197 57.25366026 94.3298768 53.08300781 101.41894531 C47.82678099 110.35789747 42.81473202 119.40409552 37.91235352 128.54125977 C32.91968347 137.83039253 27.71746498 146.99042635 22.43652344 156.11816406 C21.25209912 158.17164405 20.07920505 160.23113401 18.91113281 162.29394531 C18.28722656 163.38707031 17.66332031 164.48019531 17.02050781 165.60644531 C16.24320313 166.97542969 16.24320313 166.97542969 15.45019531 168.37207031 C14.14550781 170.35644531 14.14550781 170.35644531 12.14550781 171.35644531 C9.8684082 170.33105469 9.8684082 170.33105469 6.99316406 168.70019531 C5.38441406 167.79624023 5.38441406 167.79624023 3.74316406 166.87402344 C2.56474282 166.20156018 1.38635843 165.52903232 0.20800781 164.85644531 C-1.01286868 164.16744717 -2.23423064 163.4793086 -3.45605469 162.79199219 C-5.99815998 161.36108723 -8.53811915 159.92647593 -11.07666016 158.48925781 C-16.8165773 155.2435466 -22.58693061 152.05267988 -28.35449219 148.85644531 C-30.5994144 147.60928443 -32.84420553 146.36188757 -35.08886719 145.11425781 C-39.63966428 142.58589081 -44.19188984 140.06012047 -48.74511719 137.53613281 C-54.35147671 134.42771527 -59.95454492 131.3134516 -65.5546875 128.19384766 C-67.78759432 126.95051703 -70.02134303 125.70869737 -72.25585938 124.46826172 C-75.50019696 122.66569536 -78.74035978 120.85584454 -81.97949219 119.04394531 C-82.96401367 118.49851074 -83.94853516 117.95307617 -84.96289062 117.39111328 C-85.85782227 116.88854004 -86.75275391 116.3859668 -87.67480469 115.86816406 C-88.46129395 115.42947998 -89.2477832 114.9907959 -90.05810547 114.53881836 C-91.85449219 113.35644531 -91.85449219 113.35644531 -92.85449219 111.35644531 C-91.88916016 109.10766602 -91.88916016 109.10766602 -90.34667969 106.28222656 C-89.77868652 105.23389648 -89.21069336 104.18556641 -88.62548828 103.10546875 C-87.99980957 101.97141602 -87.37413086 100.83736328 -86.72949219 99.66894531 C-86.08526843 98.48855744 -85.44155681 97.30788992 -84.79833984 96.12695312 C-80.15915447 87.63251779 -75.41620478 79.19638759 -70.62280273 70.78808594 C-67.36957526 65.07471375 -64.19924588 59.32415291 -61.08447266 53.53417969 C-49.79700957 32.56715423 -36.3573137 8.80147856 -12.35956573 0.99394989 C-8.2346725 -0.05577511 -4.23577468 -0.04489388 0 0 Z " fill="#AEA4BF" transform="translate(175.8544921875,9.6435546875)"/>
<path d="M0 0 C2.98237763 1.32122536 4.79741236 2.68405123 6.9375 5.125 C21.12479479 19.67607158 43.06301453 25.84086607 62.88337708 26.15148926 C65.19411115 26.16897483 67.504888 26.18129363 69.81567383 26.18945312 C71.76212387 26.20218508 73.70857392 26.21491714 75.65502393 26.2276535 C77.73539671 26.24034673 79.81576929 26.25069452 81.89615822 26.26036072 C86.25809492 26.28075041 90.61996812 26.30838576 94.9818573 26.33703613 C104.25870797 26.39695138 113.53559808 26.44875055 122.8125 26.5 C132.79379245 26.55530619 142.77506517 26.61229675 152.75629824 26.67754889 C157.07127576 26.70549912 161.38624757 26.7292343 165.70126784 26.74947357 C167.75437049 26.75978602 169.80744896 26.77217251 171.86053467 26.78541565 C174.33518072 26.80136018 176.80984924 26.81432138 179.28453064 26.82322693 C189.23676033 26.89647595 199.02492533 27.47499607 209 28 C209 67.93 209 107.86 209 149 C194.211875 149.061875 179.42375 149.12375 164.1875 149.1875 C159.5574292 149.21481201 154.9273584 149.24212402 150.15698242 149.27026367 C144.4029541 149.28381348 144.4029541 149.28381348 141.68989563 149.28633118 C139.83737511 149.29086949 137.98486214 149.30127387 136.13240051 149.31672668 C114.6127644 149.486906 89.03301248 148.67514447 72.56420898 132.59838867 C68.02744494 127.63973729 65.03628759 121.98710506 61.9375 116.0625 C60.79059539 113.90742924 59.64345333 111.75248482 58.49609375 109.59765625 C57.91585449 108.5008252 57.33561523 107.40399414 56.73779297 106.27392578 C54.02560474 101.16428203 51.26163501 96.08303366 48.5 91 C47.41638842 89.00015074 46.33305579 87.00015031 45.25 85 C44.71375 84.01 44.1775 83.02 43.625 82 C25.75 49 25.75 49 24.12255859 45.99536133 C23.04751031 44.01074391 21.97231683 42.02620515 20.89697266 40.04174805 C18.06063506 34.80705575 15.22740151 29.57071259 12.3984375 24.33203125 C11.80869141 23.24083984 11.21894531 22.14964844 10.61132812 21.02539062 C9.4814912 18.93474749 8.3525379 16.84362649 7.22460938 14.75195312 C6.71478516 13.80900391 6.20496094 12.86605469 5.6796875 11.89453125 C5.23351074 11.06800049 4.78733398 10.24146973 4.32763672 9.38989258 C3.3743172 7.67381227 2.36934039 5.98605078 1.33251953 4.3190918 C0 2 0 2 0 0 Z " fill="#AEA4BF" transform="translate(7,310)"/>
<path d="M0 0 C5.16035587 5.03371471 9.15943393 10.35387629 13.04977417 16.40571594 C13.6631665 17.34256226 14.27655884 18.27940857 14.90853882 19.24464417 C16.85014966 22.214381 18.77836261 25.19253545 20.70602417 28.17134094 C21.99809145 30.15369963 23.29105328 32.13547557 24.58493042 34.11665344 C27.0460452 37.88680143 29.50278285 41.65973758 31.95602417 45.43501282 C35.66001549 51.12812491 39.41370894 56.78661744 43.20602417 62.42134094 C55.74167031 57.86283358 67.98315447 52.75904104 80.20602417 47.42134094 C80.53602417 48.08134094 80.86602417 48.74134094 81.20602417 49.42134094 C80.224823 51.68598938 80.224823 51.68598938 78.66305542 54.53071594 C78.08998657 55.58404114 77.51691772 56.63736633 76.92648315 57.72261047 C76.29685669 58.86069153 75.66723022 59.99877258 75.01852417 61.17134094 C74.37072613 62.35566737 73.72367972 63.54040521 73.07736206 64.72554016 C71.75835766 67.14118619 70.43493532 69.5543228 69.10739136 71.96528625 C66.92297952 75.9358222 64.75439899 79.91480098 62.58761597 83.89497375 C61.1282488 86.57438668 59.66541651 89.25188587 58.20211792 91.92915344 C55.02227208 97.75205612 51.86337527 103.58621858 48.70602417 109.42134094 C44.33914892 117.48826755 39.96714994 125.55236208 35.58102417 133.60884094 C35.08409058 134.52343079 34.58715698 135.43802063 34.07516479 136.38032532 C33.61045776 137.23304016 33.14575073 138.085755 32.66696167 138.96430969 C32.26267944 139.70705139 31.85839722 140.44979309 31.44186401 141.21504211 C31.03403687 141.94312073 30.62620972 142.67119934 30.20602417 143.42134094 C29.89326538 144.33117737 29.58050659 145.24101379 29.25827026 146.17842102 C27.20602417 148.42134094 27.20602417 148.42134094 25.08831787 148.82458496 C22.01501127 148.94251119 18.98301742 148.87364793 15.90914917 148.76509094 C13.35250866 148.71951167 10.79586802 148.67393926 8.23922729 148.62837219 C6.79560979 148.5939606 5.35200662 148.55894374 3.90841675 148.52339172 C-1.20620959 148.40404433 -6.32080596 148.35309504 -11.43655396 148.30805969 C-13.3372296 148.29099069 -15.23790505 148.2739005 -17.13858032 148.25679016 C-18.10094101 148.24814941 -19.0633017 148.23950867 -20.05482483 148.23060608 C-25.0005187 148.18351522 -29.94606757 148.12483016 -34.89163208 148.06587219 C-35.88550682 148.05406921 -36.87938156 148.04226624 -37.90337372 148.03010559 C-39.92678377 148.0060405 -41.95019329 147.9819314 -43.97360229 147.95777893 C-49.15720256 147.896262 -54.34082447 147.83662638 -59.52444458 147.77680969 C-69.61430977 147.66011123 -79.70415017 147.54140506 -89.79397583 147.42134094 C-89.79397583 146.43134094 -89.79397583 145.44134094 -89.79397583 144.42134094 C-88.28445435 143.16621399 -88.28445435 143.16621399 -86.17288208 141.93305969 C-85.0223938 141.24820496 -85.0223938 141.24820496 -83.84866333 140.54951477 C-83.02624146 140.07409241 -82.20381958 139.59867004 -81.35647583 139.10884094 C-79.70066005 138.12853452 -78.04570213 137.14677756 -76.39163208 136.16352844 C-75.19691284 135.45728333 -75.19691284 135.45728333 -73.97805786 134.73677063 C-70.6656261 132.74175807 -67.4853578 130.5730088 -64.32522583 128.34712219 C-62.79397583 127.42134094 -62.79397583 127.42134094 -60.79397583 127.42134094 C-70.25275188 110.49479086 -70.25275188 110.49479086 -79.77249146 93.60249329 C-80.82945783 91.72999459 -81.88023901 89.85399119 -82.92483521 87.9745636 C-85.71352704 82.97887554 -88.60955676 78.10307475 -91.70803833 73.29243469 C-100.8645842 58.81387824 -100.8645842 58.81387824 -100.69241333 52.97993469 C-99.11729071 49.6684927 -97.13535617 47.24751629 -94.79397583 44.42134094 C-93.85906184 42.94242132 -92.94935108 41.44739532 -92.05960083 39.94087219 C-86.16521114 29.97895668 -79.72241508 20.85739368 -71.79397583 12.42134094 C-71.09272583 11.66595032 -70.39147583 10.91055969 -69.66897583 10.13227844 C-60.75959268 1.39163361 -47.94366391 -4.22904996 -35.79397583 -6.57865906 C-34.53585083 -6.82615906 -33.27772583 -7.07365906 -31.98147583 -7.32865906 C-21.15356561 -8.34723548 -8.50566577 -7.48479778 0 0 Z " fill="#AEA4BF" transform="translate(359.7939758300781,27.578659057617188)"/>
<path d="M0 0 C0.33 0 0.66 0 1 0 C3.71694124 11.9408426 3.11801516 24.81954448 3 37 C3.84506104 36.94013916 4.69012207 36.88027832 5.56079102 36.81860352 C19.12717425 35.93693797 32.70908105 35.34890065 46.30138206 35.08897972 C50.00691757 35.01609693 53.70616523 34.91198271 57.40844727 34.73803711 C81.39044496 33.64085825 81.39044496 33.64085825 87.27874756 37.48934937 C90.80277592 41.15169448 92.70610647 45.31563582 94.32888794 50.08480835 C95.17066715 52.48704281 96.38267422 54.53363843 97.734375 56.68359375 C98.41543754 57.92991904 99.08770661 59.18110023 99.75 60.4375 C100.11287109 61.12432861 100.47574219 61.81115723 100.84960938 62.51879883 C110.92499588 82.17694785 114.31806238 102.69052002 107.68896484 124.02490234 C103.87095304 134.97023031 97.56607965 144.07286663 87.4375 149.875 C74.49045623 155.53718061 57.91735368 154.8208034 44.03613281 155.85986328 C40.47939376 156.12654504 36.92328537 156.40069426 33.3671875 156.67578125 C31.08857495 156.84939573 28.80993018 157.022588 26.53125 157.1953125 C25.47699829 157.27653351 24.42274658 157.35775452 23.33654785 157.44143677 C18.20764576 157.82205924 13.14298682 158.09306529 8 158 C7.92652344 159.51013672 7.92652344 159.51013672 7.8515625 161.05078125 C7.43157075 169.15535528 6.86316475 177.23612726 6.0625 185.3125 C5.98789551 186.11792236 5.91329102 186.92334473 5.83642578 187.75317383 C5.43522652 191.61379368 4.86303551 194.60703575 3 198 C-1.72041875 191.36819712 -6.22231397 184.6358236 -10.5625 177.75 C-11.7929068 175.80725243 -13.02337735 173.86454523 -14.25390625 171.921875 C-14.87539551 170.93896484 -15.49688477 169.95605469 -16.13720703 168.94335938 C-19.08236692 164.28977515 -22.04162341 159.64518853 -25 155 C-26.16412566 153.17061311 -27.328188 151.34118592 -28.4921875 149.51171875 C-31.44491848 144.87159517 -34.39806354 140.23173827 -37.35644531 135.59521484 C-38.52627782 133.75455349 -39.6898055 131.90986841 -40.84667969 130.06103516 C-43.68688333 125.53603375 -46.59845043 121.12589416 -49.7578125 116.81640625 C-50.34546387 115.98326904 -50.93311523 115.15013184 -51.53857422 114.29174805 C-52.64463722 112.72984824 -53.78778558 111.19328173 -54.97314453 109.69067383 C-56.5761941 107.37706764 -57.49766552 105.77669025 -58 103 C-56.71233823 98.56523019 -54.43434512 94.89820382 -52 91 C-50.95743525 89.17703778 -49.91701028 87.35284985 -48.87890625 85.52734375 C-47.77636788 83.66232704 -46.67078287 81.79910878 -45.5625 79.9375 C-40.40798834 71.19580143 -35.39944331 62.3870653 -30.5 53.5 C-25.09201419 43.6985966 -19.54641028 33.99106623 -13.87841797 24.33789062 C-9.14971801 16.28148584 -4.5386438 8.16475605 0 0 Z " fill="#AEA4BF" transform="translate(317,304)"/>
<path d="M0 0 C36.96 0 73.92 0 112 0 C106.9068955 9.54957094 101.77739466 19.0076384 96.375 28.375 C94.96968519 30.8206587 93.56654262 33.26755855 92.1640625 35.71484375 C91.81400146 36.32548172 91.46394043 36.93611969 91.10327148 37.56526184 C87.61039363 43.66598823 84.17566456 49.79881263 80.75 55.9375 C75.62948697 65.10757377 70.45920766 74.24669774 65.23046875 83.35546875 C63.1058384 87.05885976 60.9960585 90.77027172 58.89605713 94.48765564 C57.43937945 97.06529327 55.97894074 99.64079115 54.51824951 102.21615601 C53.80286279 103.47968806 53.08917289 104.74418246 52.3772583 106.00967407 C51.37968465 107.78241605 50.37551501 109.55144132 49.37109375 111.3203125 C48.79286865 112.34398926 48.21464355 113.36766602 47.61889648 114.42236328 C46.22881623 116.63567459 44.94155328 118.27572716 43 120 C43.144375 118.865625 43.28875 117.73125 43.4375 116.5625 C46.64939333 86.52185058 39.71402574 64.77835198 23.5078125 39.51171875 C18.70757206 32.01116935 14.07987728 24.40363475 9.43212891 16.80810547 C5.59200081 10.51455762 5.59200081 10.51455762 1.53125 4.36328125 C0 2 0 2 0 0 Z " fill="#AEA4BF" transform="translate(395,303)"/>
<path d="M0 0 C4.64104085 3.45785059 5.98543893 8.43913624 7.875 13.6875 C8.22014648 14.61852539 8.56529297 15.54955078 8.92089844 16.50878906 C11.35010662 23.09529155 13.67778963 29.71777694 15.97851562 36.35009766 C17.73422169 41.3714659 19.72751139 46.19281255 22 51 C22.36351562 49.94683594 22.72703125 48.89367187 23.1015625 47.80859375 C26.03112359 39.38118365 29.1085522 31.05938426 32.48828125 22.80078125 C33.59386383 20.0696389 34.61724959 17.31871078 35.60546875 14.54296875 C35.87037109 13.80570557 36.13527344 13.06844238 36.40820312 12.30883789 C36.91791498 10.88046303 37.41832046 9.44872419 37.90820312 8.01342773 C38.51979502 6.30906503 39.25117117 4.64868197 40 3 C40.99 2.67 41.98 2.34 43 2 C43 1.34 43 0.68 43 0 C49.85525097 -2.49281853 57.7116116 -3.39280991 64.7421875 -1.109375 C67 0 67 0 69 2 C69.19300258 4.49409647 69.2623746 6.87664153 69.24291992 9.37133789 C69.24481827 10.13080215 69.24671661 10.89026642 69.24867249 11.67274475 C69.25238496 14.18948607 69.24167036 16.70594047 69.23046875 19.22265625 C69.22927721 20.96618109 69.22882373 22.70970658 69.2290802 24.45323181 C69.22751457 28.10924287 69.21921823 31.76515612 69.20581055 35.42114258 C69.18880801 40.11801567 69.18499651 44.8147813 69.18575573 49.51168156 C69.18548441 53.11206598 69.18000962 56.7124267 69.17275429 60.31280327 C69.16956233 62.04523985 69.16759899 63.77767912 69.16686058 65.51011848 C69.16470328 67.92614489 69.15597277 70.34205503 69.14526367 72.75805664 C69.14571686 73.48067688 69.14617004 74.20329712 69.14663696 74.94781494 C69.11447504 79.88552496 69.11447504 79.88552496 68 81 C65.3226862 81.09981214 62.67695825 81.13879875 60 81.125 C58.87464844 81.13080078 58.87464844 81.13080078 57.7265625 81.13671875 C52.12661053 81.12661053 52.12661053 81.12661053 51 80 C50.87692689 78.28225833 50.82213442 76.55957261 50.79467773 74.83764648 C50.7647599 73.18604774 50.7647599 73.18604774 50.73423767 71.50108337 C50.71752518 70.3031868 50.70081268 69.10529022 50.68359375 67.87109375 C50.66281265 66.65172623 50.64203156 65.4323587 50.62062073 64.17604065 C50.55499572 60.26325355 50.49618028 56.35039683 50.4375 52.4375 C50.39432709 49.79231038 50.35071322 47.14712791 50.30664062 44.50195312 C50.1993012 38.00137664 50.09755933 31.50073021 50 25 C45.06291337 38.54303982 40.16348503 52.09773897 35.33984375 65.68164062 C34.72689453 67.40350586 34.72689453 67.40350586 34.1015625 69.16015625 C33.74400879 70.16699463 33.38645508 71.17383301 33.01806641 72.21118164 C32.68210449 73.1314917 32.34614258 74.05180176 32 75 C31.66790527 75.92482178 31.33581055 76.84964355 30.99365234 77.80249023 C30 80 30 80 28 81 C25.4867203 81.12393466 23.01329886 81.18515112 20.5 81.1875 C19.81035156 81.19974609 19.12070313 81.21199219 18.41015625 81.22460938 C16.60522506 81.22988695 14.80082158 81.12184458 13 81 C10.26679598 78.26679598 9.57786586 75.10299163 8.4375 71.5 C7.91048209 69.87577296 7.38172599 68.25210926 6.8515625 66.62890625 C6.41505371 65.29110107 6.41505371 65.29110107 5.96972656 63.92626953 C4.14177981 58.4102147 2.22222214 52.92566376 0.3125 47.4375 C-0.44179944 45.26966802 -1.19572069 43.1017044 -1.94921875 40.93359375 C-2.27237061 40.00603271 -2.59552246 39.07847168 -2.9284668 38.12280273 C-4.31204744 34.09059037 -5.65723957 30.04595887 -7 26 C-7.00808685 26.64479813 -7.01617371 27.28959625 -7.02450562 27.95393372 C-7.11043571 34.6534935 -7.20993414 41.35275344 -7.31738281 48.05200195 C-7.35571119 50.55357841 -7.39055718 53.05521072 -7.421875 55.55688477 C-7.46744146 59.14880357 -7.52545024 62.74033662 -7.5859375 66.33203125 C-7.60326431 68.01496025 -7.60326431 68.01496025 -7.62094116 69.73188782 C-7.64081085 70.77274033 -7.66068054 71.81359283 -7.68115234 72.88598633 C-7.69447601 73.80309891 -7.70779968 74.72021149 -7.7215271 75.66511536 C-8 78 -8 78 -10 81 C-12.61055594 81.24890658 -14.96094922 81.3272977 -17.5625 81.25 C-18.60954102 81.24226563 -18.60954102 81.24226563 -19.67773438 81.234375 C-24.8458282 81.1541718 -24.8458282 81.1541718 -26 80 C-26.11092168 77.58221114 -26.15738291 75.19271245 -26.16113281 72.77392578 C-26.16609772 72.01782013 -26.17106262 71.26171448 -26.17617798 70.48269653 C-26.19083639 67.97022608 -26.1976078 65.45781877 -26.203125 62.9453125 C-26.2088736 61.2051493 -26.21463136 59.46498614 -26.22039795 57.724823 C-26.23091853 54.0712657 -26.23675421 50.41773048 -26.24023438 46.76416016 C-26.24572019 42.07744407 -26.26974552 37.39101836 -26.29820633 32.70439339 C-26.31681031 29.10821678 -26.32203712 25.51211041 -26.32357025 21.91588974 C-26.32660258 20.18787931 -26.33465058 18.45987029 -26.34775543 16.73190689 C-26.36476894 14.31599975 -26.36294744 11.90080566 -26.35644531 9.48486328 C-26.3656601 8.76786255 -26.37487488 8.05086182 -26.3843689 7.31213379 C-26.36013287 4.44435032 -26.33930587 2.48433589 -24.66522217 0.09469604 C-17.98157791 -4.29904737 -7.14677188 -2.55241853 0 0 Z " fill="#AEA4BF" transform="translate(175,200)"/>
<path d="M0 0 C0.85174805 -0.00088623 1.70349609 -0.00177246 2.58105469 -0.00268555 C3.4734082 0.0149585 4.36576172 0.03260254 5.28515625 0.05078125 C6.67589355 0.06661255 6.67589355 0.06661255 8.09472656 0.08276367 C24.70468575 0.39975858 38.9742621 1.9898871 51.09765625 14.11328125 C55.84024365 20.96368528 58.0251776 28.08144317 58.34765625 36.36328125 C58.37601562 37.08128906 58.404375 37.79929688 58.43359375 38.5390625 C58.47411498 40.82040772 58.42641604 43.08299781 58.34765625 45.36328125 C58.32251953 46.66265625 58.32251953 46.66265625 58.296875 47.98828125 C57.79269701 58.12946138 54.03051065 66.08819309 47.2890625 73.609375 C36.85762653 83.03334834 23.72614957 84.02332634 10.35717773 83.82983398 C8.12345882 83.80029597 5.89204273 83.80939537 3.65820312 83.82226562 C-7.00152408 83.77588629 -7.00152408 83.77588629 -9.32778931 82.30108643 C-11.33855806 79.35935903 -11.04519678 76.39180544 -10.99291992 72.9543457 C-10.99357704 71.82715118 -10.99357704 71.82715118 -10.99424744 70.67718506 C-10.99215742 68.19337988 -10.96881701 65.71024975 -10.9453125 63.2265625 C-10.93971729 61.50449492 -10.93544684 59.78242257 -10.93244934 58.06034851 C-10.92099466 53.52776913 -10.8915222 48.99547813 -10.8583374 44.4630127 C-10.8276499 39.83801169 -10.81394683 35.21296409 -10.79882812 30.58789062 C-10.76665303 21.51289413 -10.7154492 12.43811167 -10.65234375 3.36328125 C-4.12571959 -0.01633511 -4.12571959 -0.01633511 0 0 Z M8.34765625 16.36328125 C8.34765625 33.19328125 8.34765625 50.02328125 8.34765625 67.36328125 C22.95157155 68.53777302 22.95157155 68.53777302 33.34765625 62.36328125 C33.34765625 61.37328125 33.34765625 60.38328125 33.34765625 59.36328125 C34.00765625 59.36328125 34.66765625 59.36328125 35.34765625 59.36328125 C39.31666248 49.2535484 40.78685234 38.87193596 37.34765625 28.36328125 C35.00605073 23.64842688 32.00315733 20.35141683 27.34765625 17.86328125 C20.98275379 15.69280285 20.98275379 15.69280285 8.34765625 16.36328125 Z " fill="#AEA4BF" transform="translate(17.65234375,197.63671875)"/>
<path d="M0 0 C5.45316501 3.22931464 8.89330507 6.99575201 10.87109375 13.01953125 C12.45885427 19.85059395 11.79514588 27.00881023 8.375 33.1875 C5.95386331 35.87600147 3.39708309 38.19202688 0.375 40.1875 C-0.285 40.1875 -0.945 40.1875 -1.625 40.1875 C-1.2125 40.62835938 -0.8 41.06921875 -0.375 41.5234375 C6.96500939 50.07585915 14.79780735 64.5296102 15.5625 76 C15.375 78.1875 15.375 78.1875 14.375 79.1875 C11.58477498 79.42174843 8.85726554 79.55840329 6.0625 79.625 C5.28970703 79.67076172 4.51691406 79.71652344 3.72070312 79.76367188 C1.46880574 79.80820639 -0.43953365 79.73682449 -2.625 79.1875 C-7.06556726 74.47825976 -8.80796986 67.83188476 -10.98046875 61.8203125 C-13.45492524 55.01181244 -13.45492524 55.01181244 -17.625 49.1875 C-20.92119288 48.1121463 -24.18436803 47.56833331 -27.625 47.1875 C-27.61452637 48.08581543 -27.60405273 48.98413086 -27.59326172 49.90966797 C-27.5592053 53.23814447 -27.53411382 56.56643622 -27.51513672 59.89501953 C-27.50507037 61.33645547 -27.4914162 62.77787095 -27.47412109 64.21923828 C-27.44989988 66.28943934 -27.43852359 68.35937076 -27.4296875 70.4296875 C-27.41921387 71.6760498 -27.40874023 72.92241211 -27.39794922 74.20654297 C-27.625 77.1875 -27.625 77.1875 -29.625 79.1875 C-32.35197223 79.35920903 -34.96406468 79.4199568 -37.6875 79.375 C-38.43322266 79.37435547 -39.17894531 79.37371094 -39.94726562 79.37304688 C-45.48471841 79.32778159 -45.48471841 79.32778159 -46.625 78.1875 C-46.73592168 75.76971114 -46.78238291 73.38021245 -46.78613281 70.96142578 C-46.79109772 70.20532013 -46.79606262 69.44921448 -46.80117798 68.67019653 C-46.81583639 66.15772608 -46.8226078 63.64531877 -46.828125 61.1328125 C-46.8338736 59.3926493 -46.83963136 57.65248614 -46.84539795 55.912323 C-46.85591853 52.2587657 -46.86175421 48.60523048 -46.86523438 44.95166016 C-46.87072019 40.26494407 -46.89474552 35.57851836 -46.92320633 30.89189339 C-46.94181031 27.29571678 -46.94703712 23.69961041 -46.94857025 20.10338974 C-46.95160258 18.37537931 -46.95965058 16.64737029 -46.97275543 14.91940689 C-46.98976894 12.50349975 -46.98794744 10.08830566 -46.98144531 7.67236328 C-46.9906601 6.95536255 -46.99987488 6.23836182 -47.0093689 5.49963379 C-46.98513287 2.63185032 -46.96430587 0.67183589 -45.29022217 -1.71780396 C-35.49878307 -8.15457249 -10.00765792 -4.58606959 0 0 Z M-27.625 12.1875 C-27.625 18.4575 -27.625 24.7275 -27.625 31.1875 C-18.50953426 32.03151159 -18.50953426 32.03151159 -10.3125 29.0625 C-8.39486807 25.79542338 -7.54893418 23.99079107 -7.625 20.1875 C-8.95708253 16.9111152 -10.35079432 13.82460284 -13.625 12.1875 C-15.99902501 12.11633618 -18.37500677 12.10340915 -20.75 12.125 C-24.153125 12.1559375 -24.153125 12.1559375 -27.625 12.1875 Z " fill="#AEA4BF" transform="translate(491.625,201.8125)"/>
<path d="M0 0 C0.87411026 -0.00807175 1.74822052 -0.01614349 2.64881897 -0.02445984 C4.49722315 -0.03828398 6.34565268 -0.0490136 8.1940918 -0.05688477 C11.02115976 -0.07413335 13.84706875 -0.11803744 16.67382812 -0.16210938 C18.47004349 -0.17223361 20.26626878 -0.18075055 22.0625 -0.1875 C22.90739487 -0.20500809 23.75228973 -0.22251617 24.62278748 -0.24055481 C30.48804008 -0.21885752 30.48804008 -0.21885752 33.63354492 2.13989258 C35.23562801 4.43602467 35.59137316 5.47541488 35.47265625 8.23828125 C35.45976562 8.89828125 35.446875 9.55828125 35.43359375 10.23828125 C35.09765625 12.23828125 35.09765625 12.23828125 33.09765625 16.23828125 C23.52765625 16.23828125 13.95765625 16.23828125 4.09765625 16.23828125 C4.09765625 21.84828125 4.09765625 27.45828125 4.09765625 33.23828125 C12.34765625 33.23828125 20.59765625 33.23828125 29.09765625 33.23828125 C30.39855456 35.84007788 30.26605703 37.83520005 30.28515625 40.73828125 C30.29933594 41.71796875 30.31351562 42.69765625 30.328125 43.70703125 C30.09765625 46.23828125 30.09765625 46.23828125 28.09765625 48.23828125 C25.66748047 48.46533203 25.66748047 48.46533203 22.65234375 48.43359375 C21.57597656 48.42714844 20.49960937 48.42070312 19.390625 48.4140625 C17.69873047 48.38892578 17.69873047 48.38892578 15.97265625 48.36328125 C14.83699219 48.35425781 13.70132812 48.34523437 12.53125 48.3359375 C9.71996288 48.31231324 6.90878363 48.27644135 4.09765625 48.23828125 C4.09765625 54.83828125 4.09765625 61.43828125 4.09765625 68.23828125 C13.99765625 68.23828125 23.89765625 68.23828125 34.09765625 68.23828125 C35.39855456 70.84007788 35.26605703 72.83520005 35.28515625 75.73828125 C35.29933594 76.71796875 35.31351562 77.69765625 35.328125 78.70703125 C35.09765625 81.23828125 35.09765625 81.23828125 33.09765625 83.23828125 C31.16896057 83.49897766 31.16896057 83.49897766 28.78735352 83.51293945 C27.89625381 83.52247147 27.00515411 83.53200348 26.08705139 83.54182434 C25.12246506 83.54091293 24.15787872 83.54000153 23.1640625 83.5390625 C22.17518539 83.54334763 21.18630829 83.54763275 20.16746521 83.55204773 C18.07348395 83.55779762 15.97948272 83.55828646 13.88549805 83.55395508 C10.67657465 83.55079741 7.46857478 83.57423843 4.25976562 83.59960938 C2.22786575 83.60188247 0.19596339 83.60258582 -1.8359375 83.6015625 C-3.27978065 83.61537712 -3.27978065 83.61537712 -4.75279236 83.62947083 C-5.64704422 83.62324203 -6.54129608 83.61701324 -7.46264648 83.6105957 C-8.24937241 83.61122513 -9.03609833 83.61185455 -9.84666443 83.61250305 C-11.90234375 83.23828125 -11.90234375 83.23828125 -13.65556335 82.1693573 C-15.54093094 79.24920536 -15.31991845 76.3332276 -15.29052734 72.96875 C-15.2957843 72.23185944 -15.30104126 71.49496887 -15.30645752 70.73574829 C-15.31966609 68.29887727 -15.31091677 65.86265897 -15.30078125 63.42578125 C-15.30280175 61.73331578 -15.30571298 60.04085116 -15.30947876 58.34838867 C-15.31390326 54.80085971 -15.3074671 51.25355732 -15.29345703 47.70605469 C-15.27636495 43.15610216 -15.28620548 38.60668048 -15.30417442 34.05674744 C-15.31500893 30.56176749 -15.31156748 27.06691365 -15.30379105 23.57192993 C-15.30178811 21.89417457 -15.3042516 20.21640781 -15.31122971 18.53866577 C-15.31883886 16.194739 -15.3072484 13.85167493 -15.29052734 11.5078125 C-15.29660004 10.81265533 -15.30267273 10.11749817 -15.30892944 9.40127563 C-15.27160556 6.58079004 -15.22003299 4.68788953 -13.56558228 2.34643555 C-9.40773278 -0.42378575 -4.79428533 0.04181635 0 0 Z " fill="#AEA4BF" transform="translate(273.90234375,197.76171875)"/>
<path d="M0 0 C0.79084488 -0.00960754 1.58168976 -0.01921509 2.39649963 -0.02911377 C3.2413945 -0.03336365 4.08628937 -0.03761353 4.95678711 -0.04199219 C6.26938759 -0.0505423 6.26938759 -0.0505423 7.60850525 -0.05926514 C9.45513709 -0.0686955 11.30178561 -0.0752413 13.1484375 -0.07910156 C15.97742709 -0.0888441 18.80570114 -0.11990034 21.63452148 -0.15136719 C23.42943905 -0.15789405 25.2243618 -0.16314576 27.01928711 -0.16699219 C28.28966576 -0.18551239 28.28966576 -0.18551239 29.58570862 -0.20440674 C35.4855186 -0.18192854 35.4855186 -0.18192854 37.64793396 1.519104 C39.50092436 3.90794834 39.25094232 5.74548742 39.17163086 8.72363281 C39.15616211 9.69429687 39.14069336 10.66496094 39.12475586 11.66503906 C38.92163086 14.16113281 38.92163086 14.16113281 37.92163086 16.16113281 C28.35163086 16.16113281 18.78163086 16.16113281 8.92163086 16.16113281 C8.92163086 21.77113281 8.92163086 27.38113281 8.92163086 33.16113281 C17.17163086 33.16113281 25.42163086 33.16113281 33.92163086 33.16113281 C35.14264454 36.82417386 35.35406646 40.34250661 34.92163086 44.16113281 C34.26163086 45.48113281 33.60163086 46.80113281 32.92163086 48.16113281 C25.00163086 48.16113281 17.08163086 48.16113281 8.92163086 48.16113281 C8.92163086 54.76113281 8.92163086 61.36113281 8.92163086 68.16113281 C18.49163086 68.16113281 28.06163086 68.16113281 37.92163086 68.16113281 C40.18049831 73.80830145 40.18049831 73.80830145 39.60913086 77.91113281 C39.50987305 78.68972656 39.41061523 79.46832031 39.30834961 80.27050781 C38.92163086 82.16113281 38.92163086 82.16113281 37.92163086 83.16113281 C36.52567785 83.26434698 35.12460068 83.29962677 33.72485352 83.30639648 C32.83367828 83.31277634 31.94250305 83.31915619 31.02432251 83.32572937 C29.56970108 83.32739861 29.56970108 83.32739861 28.08569336 83.32910156 C27.09540131 83.33242996 26.10510925 83.33575836 25.08480835 83.33918762 C22.98484768 83.34426169 20.88487891 83.3465958 18.78491211 83.34643555 C15.56732907 83.34861877 12.35009051 83.36676048 9.13256836 83.38574219 C7.0961112 83.38867662 5.05965241 83.39066108 3.02319336 83.39160156 C2.0574942 83.39878708 1.09179504 83.4059726 0.09683228 83.41337585 C-0.80064728 83.41029922 -1.69812683 83.4072226 -2.62280273 83.40405273 C-3.41254486 83.40547775 -4.20228699 83.40690277 -5.01596069 83.40837097 C-7.07836914 83.16113281 -7.07836914 83.16113281 -10.07836914 81.16113281 C-10.37560225 78.6288158 -10.47762723 76.34017605 -10.45068359 73.80566406 C-10.45433426 73.04780609 -10.45798492 72.28994812 -10.46174622 71.50912476 C-10.46987061 68.99706811 -10.4562264 66.48565272 -10.44165039 63.97363281 C-10.44113201 62.23250326 -10.44164886 60.49137311 -10.44316101 58.75024414 C-10.4430712 55.09838136 -10.43262446 51.44673895 -10.41455078 47.79492188 C-10.39186325 43.10704799 -10.39131856 38.41949631 -10.39806843 33.73158264 C-10.40140528 30.13542808 -10.39478369 26.53934736 -10.38493919 22.94320679 C-10.381082 21.21438991 -10.37994112 19.48556483 -10.38152504 17.75674438 C-10.3818947 15.34320339 -10.36930364 12.93008 -10.35302734 10.51660156 C-10.35550476 9.7975766 -10.35798218 9.07855164 -10.36053467 8.33773804 C-10.30711096 3.38987463 -10.30711096 3.38987463 -8.07836914 1.16113281 C-5.35847207 0.26677294 -2.85107058 0.02810468 0 0 Z " fill="#AEA4BF" transform="translate(97.078369140625,197.8388671875)"/>
<path d="M0 0 C0.78754166 -0.00622879 1.57508331 -0.01245758 2.38648987 -0.01887512 C3.64138466 -0.0050605 3.64138466 -0.0050605 4.92163086 0.0090332 C6.22855141 0.00828545 6.22855141 0.00828545 7.56187439 0.00752258 C9.39836923 0.00985696 11.23486763 0.01954786 13.07128906 0.03613281 C15.88041801 0.0597635 18.68859936 0.05668416 21.49780273 0.05004883 C23.28491776 0.05562483 25.0720288 0.06273423 26.85913086 0.0715332 C27.69775162 0.0706218 28.53637238 0.06971039 29.40040588 0.06877136 C30.57699013 0.08306938 30.57699013 0.08306938 31.77734375 0.09765625 C32.8072921 0.10456734 32.8072921 0.10456734 33.85804749 0.11161804 C36.16689423 0.41778812 37.80567916 1.23690978 39.82397461 2.37231445 C39.87786548 4.33034952 39.91671678 6.28880354 39.94897461 8.24731445 C39.97217773 9.33786133 39.99538086 10.4284082 40.01928711 11.55200195 C39.82397461 14.37231445 39.82397461 14.37231445 37.82397461 16.37231445 C34.93481445 16.59936523 34.93481445 16.59936523 31.28491211 16.56762695 C29.33198242 16.55795898 29.33198242 16.55795898 27.33959961 16.5480957 C25.95938865 16.53138375 24.57918032 16.51445384 23.19897461 16.49731445 C21.81096009 16.48728451 20.42293872 16.47815868 19.03491211 16.4699707 C15.63119269 16.44633376 12.22756233 16.41046176 8.82397461 16.37231445 C8.82397461 21.98231445 8.82397461 27.59231445 8.82397461 33.37231445 C10.60545898 33.33750977 12.38694336 33.30270508 14.22241211 33.2668457 C16.54792355 33.23871452 18.87344514 33.21141365 21.19897461 33.18481445 C22.37459961 33.15967773 23.55022461 33.13454102 24.76147461 33.10864258 C26.44370117 33.09414062 26.44370117 33.09414062 28.15991211 33.0793457 C29.19680176 33.06363525 30.23369141 33.0479248 31.30200195 33.03173828 C32.55037842 33.20032349 32.55037842 33.20032349 33.82397461 33.37231445 C35.90530928 36.49431646 36.09775681 37.30498434 36.07397461 40.87231445 C36.08170898 42.0324707 36.08170898 42.0324707 36.08959961 43.21606445 C35.82397461 45.37231445 35.82397461 45.37231445 33.82397461 48.37231445 C31.30200195 48.71289062 31.30200195 48.71289062 28.15991211 48.6652832 C27.03842773 48.65561523 25.91694336 48.64594727 24.76147461 48.63598633 C23.58584961 48.61084961 22.41022461 48.58571289 21.19897461 48.55981445 C20.01561523 48.5462793 18.83225586 48.53274414 17.61303711 48.51879883 C14.6831571 48.48335673 11.75350995 48.4295485 8.82397461 48.37231445 C8.82397461 54.97231445 8.82397461 61.57231445 8.82397461 68.37231445 C10.97799805 68.36071289 13.13202148 68.34911133 15.35131836 68.3371582 C17.429686 68.32936709 19.50805204 68.32329064 21.58642578 68.31738281 C23.03467533 68.31234344 24.48291978 68.30551192 25.93115234 68.296875 C28.00872049 68.28479198 30.08622158 68.27908234 32.16381836 68.2746582 C33.41541748 68.26942139 34.6670166 68.26418457 35.95654297 68.25878906 C38.82397461 68.37231445 38.82397461 68.37231445 39.82397461 69.37231445 C39.9229766 71.34944252 39.95368234 73.33021484 39.94897461 75.30981445 C39.9528418 76.93209961 39.9528418 76.93209961 39.95678711 78.5871582 C39.82397461 81.37231445 39.82397461 81.37231445 38.82397461 83.37231445 C32.3095646 83.44820481 25.79526801 83.50084648 19.28051758 83.53710938 C17.06302633 83.55222199 14.84556508 83.57271271 12.62817383 83.59863281 C9.44596972 83.63490738 6.26415979 83.65201584 3.08178711 83.6652832 C1.58798019 83.68850899 1.58798019 83.68850899 0.06399536 83.71220398 C-1.31720993 83.71254387 -1.31720993 83.71254387 -2.72631836 83.71289062 C-3.53906219 83.71955246 -4.35180603 83.72621429 -5.18917847 83.733078 C-5.84483795 83.61402603 -6.50049744 83.49497406 -7.17602539 83.37231445 C-9.57285165 79.77707506 -9.47850255 77.16520399 -9.48242188 73.01098633 C-9.49074539 72.26434219 -9.49906891 71.51769806 -9.50764465 70.74842834 C-9.53174961 68.27925413 -9.54051609 65.81034386 -9.54711914 63.34106445 C-9.55608322 61.62617919 -9.56520502 59.91129475 -9.57447815 58.19641113 C-9.59097071 54.60186867 -9.59866907 51.0074194 -9.6015625 47.4128418 C-9.60695487 42.80216541 -9.64466817 38.19236161 -9.69030666 33.58193207 C-9.72001304 30.040637 -9.7272846 26.49955401 -9.72828865 22.95814514 C-9.73250172 21.25802095 -9.74497944 19.55789674 -9.7658062 17.8578949 C-9.79259709 15.48248552 -9.78793456 13.10912472 -9.77539062 10.73364258 C-9.79022491 10.02913467 -9.8050592 9.32462677 -9.82034302 8.59877014 C-9.79075623 6.6361084 -9.79075623 6.6361084 -9.17602539 3.37231445 C-6.24284038 0.87675774 -3.81583725 -0.00349387 0 0 Z " fill="#AEA4BF" transform="translate(393.176025390625,197.627685546875)"/>
<path d="M0 0 C1.08792847 -0.00630432 2.17585693 -0.01260864 3.29675293 -0.019104 C5.05154968 -0.01303131 5.05154968 -0.01303131 6.84179688 -0.00683594 C8.65025085 -0.00970612 8.65025085 -0.00970612 10.49523926 -0.01263428 C13.04386606 -0.01399506 15.59249981 -0.01030607 18.14111328 -0.00195312 C22.04540556 0.00874756 25.94923768 -0.00185237 29.85351562 -0.01464844 C32.32877706 -0.01332682 34.80403821 -0.01076439 37.27929688 -0.00683594 C38.44916138 -0.0108844 39.61902588 -0.01493286 40.82434082 -0.019104 C41.91226929 -0.01279968 43.00019775 -0.00649536 44.12109375 0 C45.07721558 0.00159119 46.0333374 0.00318237 47.01843262 0.00482178 C49.71118822 0.27383873 51.32686655 0.73988328 53.56054688 2.25878906 C54.74044927 5.79849624 54.75623956 8.54062806 54.56054688 12.25878906 C53.90054688 13.57878906 53.24054688 14.89878906 52.56054688 16.25878906 C45.63054687 16.25878906 38.70054687 16.25878906 31.56054688 16.25878906 C31.57625732 19.19664307 31.57625732 19.19664307 31.59228516 22.19384766 C31.62450012 28.65588791 31.64750038 35.11790919 31.66417122 41.58000755 C31.67462053 45.4990219 31.6888005 49.41794959 31.71142578 53.33691406 C31.73311349 57.11701945 31.74510685 60.89704135 31.75030136 64.67720413 C31.75400447 66.12134745 31.76123548 67.56548607 31.77200699 69.00959396 C31.78646704 71.02799801 31.78736332 73.04648558 31.78759766 75.06494141 C31.79203888 76.2152182 31.7964801 77.365495 31.80105591 78.55062866 C31.56054688 81.25878906 31.56054688 81.25878906 29.56054688 83.25878906 C27.01519547 83.45727977 24.60337929 83.53730681 22.06054688 83.50878906 C21.37089844 83.51652344 20.68125 83.52425781 19.97070312 83.53222656 C14.8138798 83.51212199 14.8138798 83.51212199 12.56054688 81.25878906 C12.32003784 78.55062866 12.32003784 78.55062866 12.33349609 75.06494141 C12.33364716 73.76374359 12.33379822 72.46254578 12.33395386 71.12191772 C12.34416795 69.6961858 12.35459995 68.27045542 12.36523438 66.84472656 C12.36896393 65.39027093 12.37181117 63.9358128 12.37380981 62.48135376 C12.38145088 58.6508085 12.4011033 54.8204146 12.42321777 50.9899292 C12.44366609 47.08217415 12.45280935 43.17439468 12.46289062 39.26660156 C12.48434885 31.59726168 12.51849036 23.92804657 12.56054688 16.25878906 C11.92963135 16.26402588 11.29871582 16.2692627 10.64868164 16.2746582 C7.8068134 16.29536733 4.964961 16.30842972 2.12304688 16.32128906 C0.63321289 16.33385742 0.63321289 16.33385742 -0.88671875 16.34667969 C-1.83095703 16.34990234 -2.77519531 16.353125 -3.74804688 16.35644531 C-5.05986938 16.36430054 -5.05986938 16.36430054 -6.39819336 16.37231445 C-8.43945312 16.25878906 -8.43945312 16.25878906 -9.43945312 15.25878906 C-9.51204258 13.07239453 -9.52319095 10.88378517 -9.50195312 8.69628906 C-9.49292969 7.49875 -9.48390625 6.30121094 -9.47460938 5.06738281 C-9.46300781 4.14054688 -9.45140625 3.21371094 -9.43945312 2.25878906 C-6.18526293 0.33018064 -3.76018824 0.00625774 0 0 Z " fill="#AEA4BF" transform="translate(322.439453125,197.7412109375)"/>
<path d="M0 0 C2 1 2 1 2 1 Z " fill="#AEA4BF" transform="translate(110,329)"/>
<path d="" fill="#AEA4BF" transform="translate(0,0)"/>
</svg>
