<?xml version="1.0" standalone="no"?>
<!DOCTYPE svg PUBLIC "-//W3C//DTD SVG 20010904//EN"
 "http://www.w3.org/TR/2001/REC-SVG-20010904/DTD/svg10.dtd">
<svg version="1.0" xmlns="http://www.w3.org/2000/svg"
 width="341.000000pt" height="304.000000pt" viewBox="0 0 341.000000 304.000000"
 preserveAspectRatio="xMidYMid meet">

<g transform="translate(0.000000,304.000000) scale(0.100000,-0.100000)"
fill="#AEA4BF" stroke="none">
<path d="M1451 2984 c-154 -41 -322 -170 -402 -309 -78 -134 -109 -344 -74
-499 28 -126 85 -226 190 -332 75 -75 104 -97 177 -132 48 -23 114 -49 147
-58 34 -10 61 -20 61 -24 0 -9 -186 -225 -276 -320 -38 -41 -119 -131 -179
-200 -60 -69 -114 -126 -120 -128 -6 -1 -159 50 -340 114 -359 127 -423 141
-486 109 -101 -51 -150 -150 -128 -256 13 -61 50 -105 117 -142 47 -26 413
-173 657 -264 116 -43 123 -45 207 -40 61 3 100 11 132 27 33 16 122 100 321
303 150 155 276 279 278 277 2 -3 45 -223 95 -490 51 -267 100 -515 108 -552
l16 -68 233 0 232 0 -13 58 c-14 61 -191 986 -222 1165 -17 94 -18 107 -4 107
8 0 154 -41 324 -90 452 -132 467 -136 531 -121 106 23 169 62 238 146 35 43
81 98 102 122 l37 44 0 335 c0 189 -4 334 -9 334 -13 0 -99 -96 -282 -312 -89
-104 -168 -192 -176 -195 -9 -3 -50 2 -92 12 -104 24 -648 180 -688 196 l-32
14 56 75 c115 155 160 299 149 480 -12 195 -57 292 -200 436 -83 83 -115 108
-176 137 -41 19 -99 40 -128 46 -77 16 -315 13 -381 -5z"/>
</g>
</svg>
