<?xml version="1.0" standalone="no"?>
<!DOCTYPE svg PUBLIC "-//W3C//DTD SVG 20010904//EN"
 "http://www.w3.org/TR/2001/REC-SVG-20010904/DTD/svg10.dtd">
<svg version="1.0" xmlns="http://www.w3.org/2000/svg"
 width="512.000000pt" height="512.000000pt" viewBox="0 0 512.000000 512.000000"
 preserveAspectRatio="xMidYMid meet">

<g transform="translate(0.000000,512.000000) scale(0.100000,-0.100000)"
fill="#000000" stroke="none">
<path d="M2370 5109 c-599 -69 -1050 -429 -1275 -1020 -42 -109 -89 -295 -112
-441 -24 -157 -24 -552 0 -727 100 -712 438 -1175 992 -1360 256 -85 615 -114
856 -67 227 44 433 152 600 316 99 98 151 166 230 302 l56 98 7 -62 c9 -90 7
-378 -4 -573 -26 -446 -141 -756 -355 -952 -186 -172 -440 -253 -789 -253
-550 0 -926 232 -1031 635 -11 39 -24 73 -29 77 -6 4 -105 8 -219 8 l-208 0 6
-57 c12 -110 47 -228 95 -328 221 -458 788 -730 1465 -701 416 17 730 110 963
286 235 177 405 465 482 816 57 260 54 158 57 2107 l4 1797 -221 0 -220 0 -2
-307 -3 -308 -48 85 c-256 453 -748 692 -1297 629z m485 -393 c506 -133 817
-604 864 -1312 34 -503 -116 -972 -404 -1259 -137 -138 -286 -223 -483 -277
-66 -18 -105 -22 -272 -22 -183 -1 -201 1 -294 27 -231 64 -439 209 -591 412
-58 79 -145 247 -184 359 -143 407 -124 985 44 1388 156 372 437 622 790 703
43 10 113 13 245 11 161 -3 198 -7 285 -30z"/>
</g>
</svg>
