<?xml version="1.0" encoding="UTF-8"?>
<svg version="1.1" xmlns="http://www.w3.org/2000/svg" width="512" height="512">
<path d="M0 0 C1.1425676 -0.0049649 2.28513519 -0.00992981 3.46232605 -0.01504517 C7.22456474 -0.02959391 10.98676129 -0.03645634 14.74902344 -0.04199219 C17.3768514 -0.04774927 20.00467936 -0.05350693 22.63250732 -0.05926514 C27.43465486 -0.0688155 32.2367934 -0.07472528 37.03894925 -0.07776189 C44.07573665 -0.082238 51.11232937 -0.09977658 58.14905763 -0.12876248 C64.27328991 -0.15310147 70.39744264 -0.1607118 76.52172089 -0.16243744 C79.11310639 -0.16545243 81.7044913 -0.1734417 84.29584503 -0.18662262 C87.93045065 -0.2037919 91.56458837 -0.20177622 95.19921875 -0.1953125 C96.25624496 -0.20452728 97.31327118 -0.21374207 98.40232849 -0.22323608 C110.62827983 -0.15556872 121.82160103 2.53394889 131.17089844 10.75488281 C138.30742225 18.31959806 140.46365385 28.00398591 140.35839844 38.16113281 C139.59242703 48.28289788 135.86592656 56.58808426 128.45605469 63.59082031 C122.14952245 68.31191149 114.52291227 71.26300249 106.64802551 71.31262207 C105.23308807 71.32513756 105.23308807 71.32513756 103.78956604 71.33790588 C102.76145309 71.3420903 101.73334015 71.34627472 100.67407227 71.35058594 C99.04165085 71.36302589 99.04165085 71.36302589 97.37625122 71.37571716 C95.01199102 71.39311634 92.6477136 71.40828352 90.28342628 71.42149353 C86.53783836 71.44253783 82.79233601 71.46956235 79.04679871 71.49816895 C71.08819822 71.55786771 63.12955719 71.61000864 55.17089844 71.66113281 C45.96492959 71.72036297 36.75900033 71.78287754 27.55310631 71.85301208 C23.8701194 71.87948964 20.18712811 71.90036676 16.50410461 71.92102051 C14.23263349 71.93763524 11.96116424 71.9545081 9.68969727 71.97167969 C8.67170547 71.97586411 7.65371368 71.98004852 6.60487366 71.98435974 C-3.96675579 71.69441349 -3.96675579 71.69441349 -13.64160156 75.03613281 C-16.76923548 78.35924385 -16.76741194 81.15206336 -16.77302933 85.52669239 C-16.77879104 87.20735679 -16.77879104 87.20735679 -16.78466916 88.921974 C-16.78380268 90.15813716 -16.7829362 91.39430032 -16.78204346 92.66792297 C-16.78501458 93.97707316 -16.7879857 95.28622335 -16.79104686 96.63504475 C-16.79912587 100.27659213 -16.80090693 103.91811982 -16.80164433 107.5596751 C-16.80349331 111.48411456 -16.81103984 115.40854376 -16.81777954 119.33297729 C-16.8313696 127.91763806 -16.83738858 136.50229416 -16.8417902 145.08696389 C-16.84455138 150.44549614 -16.8487885 155.80402658 -16.85329437 161.1625576 C-16.86548773 175.99379138 -16.87578703 190.82502371 -16.87916946 205.6562624 C-16.87938903 206.60575087 -16.8796086 207.55523935 -16.87983482 208.53350021 C-16.88005309 209.48528145 -16.88027137 210.4370627 -16.88049626 211.41768581 C-16.88093973 213.34640968 -16.8813863 215.27513355 -16.88183594 217.20385742 C-16.88205737 218.1605744 -16.8822788 219.11729137 -16.88250694 220.10299977 C-16.8864558 235.60874106 -16.90391221 251.11443539 -16.92719546 266.62015853 C-16.95089769 282.53311898 -16.96337079 298.44605585 -16.96453738 314.35903424 C-16.96545476 323.29623451 -16.97122282 332.23337359 -16.98935699 341.17055702 C-17.00474274 348.78011623 -17.00988748 356.38959532 -17.00161889 363.99916712 C-16.99770701 367.88242763 -16.99866811 371.76552673 -17.01267624 375.64876747 C-17.02771839 379.8570927 -17.01956468 384.06505277 -17.00909424 388.27339172 C-17.01715064 389.50286272 -17.02520705 390.73233371 -17.03350759 391.99906141 C-17.11562907 400.07063559 -17.11562907 400.07063559 -13.64160156 407.16113281 C-10.01724267 408.97013724 -7.06958257 409.4120012 -3.0455637 409.41560841 C-1.92462206 409.4214406 -0.80368043 409.42727279 0.35122913 409.43328172 C2.19089892 409.42761273 2.19089892 409.42761273 4.06773376 409.42182922 C5.37450925 409.42565477 6.68128473 409.42948032 8.02765948 409.43342179 C11.65331283 409.44371715 15.27886747 409.44151608 18.90452898 409.4372412 C22.8153054 409.43477677 26.72605788 409.44378458 30.63682556 409.45127869 C38.29769791 409.46403543 45.95853523 409.46581818 53.61941641 409.46347842 C59.84541348 409.46169626 66.07139991 409.46344272 72.29739571 409.46770287 C73.18310152 409.46829805 74.06880733 409.46889324 74.98135271 409.46950647 C76.78059065 409.4707182 78.57982859 409.47193234 80.37906653 409.47314885 C97.25652012 409.48402806 114.13395374 409.48186003 131.01140846 409.475764 C146.45559407 409.47059401 161.89971663 409.48185177 177.34388977 409.50086222 C193.19815699 409.52022803 209.05239436 409.52849886 224.90667349 409.52473897 C233.80918646 409.52282507 242.71164576 409.52533282 251.61414909 409.53945351 C259.1925577 409.55135223 266.77087958 409.55278915 274.34928935 409.54066334 C278.21635764 409.53476413 282.08326718 409.53370386 285.95032501 409.54566574 C290.14103637 409.55847823 294.33136798 409.54808498 298.52207947 409.53535461 C299.74629528 409.5427289 300.97051108 409.55010318 302.23182434 409.55770093 C310.26131238 409.59944371 310.26131238 409.59944371 317.35839844 406.16113281 C319.40908832 403.30499205 319.61104671 400.89610906 319.62341309 397.4329834 C319.63168625 396.4856131 319.63995941 395.5382428 319.64848328 394.56216431 C319.64750137 393.52941376 319.64651947 392.49666321 319.64550781 391.43261719 C319.65234085 390.33940155 319.65917389 389.24618591 319.66621399 388.11984253 C319.67980841 385.74413613 319.68885756 383.36840041 319.69392395 380.99266052 C319.70221378 377.2251876 319.72272364 373.45795699 319.74645996 369.69055176 C319.79472329 361.68077764 319.827675 353.67098854 319.85839844 345.66113281 C319.89399211 336.4049031 319.93625257 327.14877811 319.99433899 317.89265442 C320.01429795 314.19481814 320.02270753 310.49707305 320.03063965 306.79919434 C320.04362559 304.50772785 320.05714785 302.21626433 320.07128906 299.92480469 C320.07030716 298.90824799 320.06932526 297.89169128 320.0683136 296.84432983 C320.1854088 283.1163251 322.31092368 270.20860757 332.35839844 260.16113281 C339.40531875 254.39846434 349.12920844 251.42542479 358.23730469 251.87988281 C368.87619797 253.29056479 377.76132403 256.38185767 384.67089844 264.91113281 C391.67127696 275.08112716 392.50889749 285.39847936 392.50366211 297.36621094 C392.50870003 299.02872391 392.50870003 299.02872391 392.51383972 300.724823 C392.52331963 304.38068776 392.52529168 308.03650653 392.52636719 311.69238281 C392.52958296 314.24719257 392.53294728 316.80200215 392.53645325 319.35681152 C392.54243794 324.71313986 392.5443369 330.06945121 392.54370117 335.42578125 C392.54310248 341.58034909 392.55361649 347.7348287 392.56944484 353.88937426 C392.58420654 359.8453955 392.58768617 365.8013904 392.58709145 371.75743103 C392.58826426 374.27376159 392.59264635 376.79009293 392.60042381 379.30641174 C392.68624968 409.9553311 389.62353523 436.2977632 367.24121094 459.34082031 C349.94511143 475.623229 328.12265316 481.66024908 304.91984558 481.54881287 C303.53379094 481.55299895 302.14773974 481.55848337 300.76169473 481.56513268 C296.99933715 481.57943921 293.23720137 481.5753896 289.47483242 481.56796587 C285.39902882 481.56319934 281.32327085 481.57577461 277.2474823 481.58598328 C269.28047365 481.60310919 261.31354408 481.6040242 253.34652182 481.59877037 C246.86533274 481.59471563 240.38416688 481.59618766 233.9029789 481.60151863 C232.51504087 481.60264126 232.51504087 481.60264126 231.0990637 481.60378658 C229.21883787 481.60531818 227.33861204 481.60685653 225.45838622 481.60840154 C207.85754613 481.62210426 190.25675059 481.61670472 172.65591154 481.60521633 C156.58672972 481.59528748 140.5176631 481.60822259 124.44849905 481.63215052 C107.91132382 481.65658804 91.37420215 481.66613791 74.83700925 481.6594978 C65.56760228 481.65601575 56.29828384 481.65817026 47.02889061 481.67574883 C39.13776767 481.69052919 31.24679559 481.69103057 23.35567542 481.67367791 C19.33714302 481.66521306 15.31887944 481.66290641 11.30036163 481.67832947 C-18.58553974 481.78469145 -43.40631078 478.80573756 -66.26269531 457.59472656 C-80.09247814 443.44701769 -88.74072725 423.06933649 -88.77582264 403.20727825 C-88.78028048 402.03191153 -88.78473833 400.85654481 -88.78933126 399.64556092 C-88.78914689 398.36338443 -88.78896253 397.08120794 -88.78877258 395.76017761 C-88.79207449 394.37705629 -88.79580074 392.99393592 -88.79991406 391.61081678 C-88.8099054 387.81486146 -88.81364624 384.01892195 -88.81630337 380.22295535 C-88.82021506 376.12657607 -88.82979291 372.03020921 -88.83851624 367.93383789 C-88.85825821 358.04221574 -88.86834484 348.15059261 -88.87724403 338.25895569 C-88.8816314 333.59546576 -88.88699712 328.93197697 -88.89223289 324.26848793 C-88.90924434 308.75603439 -88.92373648 293.24358154 -88.93098164 277.73112011 C-88.93289139 273.70754686 -88.93481174 269.68397362 -88.93676758 265.66040039 C-88.93725132 264.6604155 -88.93773506 263.66043061 -88.93823346 262.63014314 C-88.94652615 246.44655822 -88.97185059 230.2630474 -89.00434826 214.0794948 C-89.03747462 197.44656876 -89.05543551 180.81368029 -89.05862588 164.1807211 C-89.06078602 154.84916006 -89.06946158 145.517707 -89.09508705 136.18617821 C-89.11687053 128.23553535 -89.12480713 120.28502672 -89.11512027 112.3343574 C-89.11059735 108.28359667 -89.1123434 104.23311243 -89.13188171 100.18239021 C-89.26342197 71.308082 -86.18271058 45.03614651 -65.26660156 23.22363281 C-47.32732732 6.2311536 -24.15185912 0.02534765 0 0 Z " fill="#000000" transform="translate(88.6416015625,30.8388671875)"/>
<path d="M0 0 C1.69774829 -0.00570961 3.39549274 -0.01267614 5.0932312 -0.02079773 C9.68425527 -0.03867999 14.27508769 -0.03756995 18.86613607 -0.03185534 C22.70788217 -0.02875604 26.54959185 -0.03486425 30.39133275 -0.04089409 C39.45948726 -0.05492181 48.52754754 -0.05339292 57.59570312 -0.04199219 C66.93033632 -0.03051529 76.26468206 -0.04458346 85.59927738 -0.07138866 C93.6327058 -0.09358812 101.66604426 -0.10017341 109.69950116 -0.09431225 C114.48911814 -0.09095131 119.27855094 -0.09330005 124.06814194 -0.11056328 C128.57450152 -0.12609796 133.08043732 -0.12200499 137.58678055 -0.10325813 C139.23342562 -0.0995901 140.88010256 -0.10262821 142.52671814 -0.11314392 C154.28664756 -0.18246822 164.90059026 0.88679052 174.39501953 8.56811523 C181.19493914 15.561468 184.42235036 24.10144064 184.44760132 33.7399292 C184.45213243 34.45670531 184.45666354 35.17348141 184.46133196 35.91197801 C184.4739437 38.30230633 184.4723577 40.69240586 184.47070312 43.08276367 C184.47669046 44.80139457 184.48349648 46.52002277 184.49105835 48.23864746 C184.50870627 52.89998639 184.51341327 57.56125186 184.51468992 62.22262096 C184.51611295 65.1377431 184.52038545 68.05284666 184.52568436 70.96796417 C184.54418178 81.14621666 184.55235547 91.32441681 184.55078125 101.50268555 C184.54958045 110.97643196 184.57067144 120.44995033 184.60226858 129.92363906 C184.62846062 138.06823346 184.63914729 146.21275352 184.63787043 154.35738969 C184.63736159 159.21689515 184.64300148 164.07619796 184.66422653 168.93566132 C184.68365788 173.50926179 184.68370004 178.08246736 184.66919327 182.65608215 C184.66711002 184.32895233 184.67177706 186.00184754 184.68391418 187.67467499 C184.7694704 200.28985367 183.29031263 210.92706474 174.18017578 220.40405273 C166.8749365 226.80884503 157.05865539 230.17215775 147.30126953 229.68530273 C136.0170869 228.18905752 126.69904424 224.45946156 119.46142578 215.39233398 C114.37855162 207.5045811 113.0851338 199.16196727 112.97485352 189.92993164 C112.96495392 189.20729126 112.95505432 188.48465088 112.94485474 187.7401123 C112.91346655 185.37031237 112.88857284 183.00049245 112.86376953 180.63061523 C112.84318037 178.9800873 112.8221834 177.32956442 112.80079651 175.67904663 C112.74577838 171.34889831 112.69628032 167.018704 112.64794922 162.68847656 C112.59758566 158.26420024 112.54197736 153.83999014 112.48681641 149.41577148 C112.37948287 140.74525467 112.27798352 132.07468221 112.18017578 123.40405273 C104.34467508 131.2163127 96.51192985 139.031324 88.68262386 146.84979248 C85.04650361 150.48070949 81.40946546 154.11069674 77.77026367 157.73852539 C74.25376104 161.24410786 70.73975595 164.75217649 67.2274189 168.26193237 C65.89158072 169.59593269 64.55486741 170.9290573 63.21723747 172.26126099 C61.33393926 174.13722739 59.453868 176.01637465 57.57446289 177.89624023 C57.02923477 178.43787308 56.48400665 178.97950592 55.92225647 179.53755188 C53.16653608 182.30051704 50.53687143 185.12061737 47.99728394 188.08396912 C43.16815297 193.65622551 37.9205545 198.81986963 32.7121582 204.03320312 C31.56461503 205.18538405 30.41726631 206.33775868 29.27009583 207.49031067 C26.17327688 210.60015827 23.0732094 213.70674655 19.97210097 216.81231618 C18.03026932 218.75709234 16.08902044 220.70244841 14.1479435 222.64797783 C8.06123039 228.74833696 1.97253877 234.84671095 -4.11906415 240.94218737 C-11.12698684 247.95459231 -18.12831797 254.97349139 -25.12399179 261.9981156 C-30.54991671 267.44570692 -35.98164126 272.8874713 -41.41774291 278.32490724 C-44.65658293 281.56479117 -47.89298893 284.80701717 -51.12336159 288.05534554 C-54.16276837 291.1113204 -57.20936611 294.15994407 -60.26143074 297.20327568 C-61.37414138 298.31522077 -62.48433699 299.42968984 -63.59167862 300.54698181 C-71.40094761 308.42223961 -79.37913422 315.8405511 -89.69482422 320.27905273 C-90.57912109 320.66834961 -91.46341797 321.05764648 -92.37451172 321.45874023 C-100.16022113 324.46855122 -109.91615061 325.05071127 -117.69482422 321.77905273 C-119.09528566 321.03335249 -120.47188951 320.24097157 -121.81982422 319.40405273 C-122.51720703 318.97995117 -123.21458984 318.55584961 -123.93310547 318.11889648 C-131.03647857 313.31642767 -135.94242423 306.28128502 -138.34716797 298.04467773 C-140.1336291 288.064118 -139.5385681 278.42877247 -134.81982422 269.40405273 C-130.06403876 262.7236492 -124.50394955 256.79906725 -118.69482422 251.03613281 C-117.9262207 250.26563095 -117.15761719 249.49512909 -116.36572266 248.70127869 C-113.85526375 246.18715263 -111.33774285 243.6802372 -108.81982422 241.17358398 C-107.05643779 239.41139177 -105.29342319 237.6488274 -103.53076172 235.88591003 C-99.84895499 232.20566117 -96.16383339 228.52877627 -92.47607422 224.85449219 C-87.76370666 220.15913201 -83.05798352 215.4572148 -78.35449219 210.75296497 C-74.71898763 207.11773309 -71.08087697 203.48511889 -67.44189453 199.85336876 C-65.70626737 198.12090929 -63.97123245 196.38785628 -62.23681641 194.65418434 C-59.8086492 192.2281999 -57.37720849 189.8055444 -54.94482422 187.38378906 C-54.2380957 186.67660736 -53.53136719 185.96942566 -52.80322266 185.24081421 C-49.5990729 182.05698306 -46.36235373 178.96820289 -42.93676758 176.02297974 C-37.99885642 171.75670331 -33.42687085 167.14307546 -28.82373047 162.52148438 C-27.84740852 161.54487971 -26.87086504 160.56849645 -25.89411926 159.59231567 C-23.26640093 156.96488203 -20.64175817 154.33439604 -18.01769257 151.70331502 C-15.26620656 148.9455404 -12.51185246 146.19063324 -9.7578125 143.43540955 C-4.55346112 138.227961 0.64833781 133.01797061 5.84920502 127.80704254 C11.77473582 121.87030026 17.70313625 115.93642708 23.63176918 110.00278294 C35.81774781 97.80637651 48.00015122 85.60640517 60.18017578 73.40405273 C56.75291495 72.26163246 54.08026886 72.25848461 50.46484375 72.23046875 C49.7863588 72.22378174 49.10787384 72.21709473 48.40882874 72.21020508 C46.93562483 72.19616308 45.46239927 72.18426631 43.98916245 72.17425728 C41.65082784 72.15780749 39.31265141 72.13456422 36.97439575 72.10935974 C30.32594751 72.03872161 23.67743228 71.97871179 17.02880859 71.92724609 C12.95982348 71.89527156 8.89101705 71.85394355 4.82217789 71.8070507 C3.27780531 71.79113218 1.73339159 71.77876435 0.18896103 71.77014351 C-13.25904947 71.69404014 -24.4011104 70.89092419 -34.86669922 61.58374023 C-42.09200503 53.95702855 -45.24603724 44.17320027 -45.02685547 33.73217773 C-44.10477812 23.36315693 -40.68327498 14.46502392 -32.67919922 7.55639648 C-22.36807282 0.21963347 -12.13781744 -0.03692067 0 0 Z " fill="#000000" transform="translate(327.81982421875,-0.404052734375)"/>
</svg>
