<svg id="Raggruppa_152" data-name="Raggruppa 152" xmlns="http://www.w3.org/2000/svg" xmlns:xlink="http://www.w3.org/1999/xlink" width="149.825" height="97.928" viewBox="0 0 149.825 97.928">
  <defs>
    <clipPath id="clip-path">
      <rect id="Rettangolo_109" data-name="Rettangolo 109" width="149.825" height="97.928" fill="none"/>
    </clipPath>
  </defs>
  <g id="Raggruppa_144" data-name="Raggruppa 144" clip-path="url(#clip-path)">
    <path id="Tracciato_11" data-name="Tracciato 11" d="M51.8,361.644a2.786,2.786,0,0,0-2.946-3.044H45.2v9.722h1.277v-3.658h1.252l2.553,3.658h1.547l-2.578-3.658a2.821,2.821,0,0,0,2.553-3.02m-5.327,1.841v-3.707h2.406a1.652,1.652,0,0,1,1.62,1.841c0,1.1-.565,1.841-1.989,1.841H46.477Z" transform="translate(-34.104 -270.566)" fill="#fff"/>
    <path id="Tracciato_12" data-name="Tracciato 12" d="M81.752,364.148h3.9v-1.2h-3.9v-3.167H86.22V358.6H80.5v9.722h5.867v-1.178H81.752Z" transform="translate(-60.738 -270.566)" fill="#fff"/>
    <path id="Tracciato_13" data-name="Tracciato 13" d="M116.018,358.6H108.8v1.178h2.97v8.543h1.277v-8.543h2.97Z" transform="translate(-82.09 -270.566)" fill="#fff"/>
    <path id="Tracciato_14" data-name="Tracciato 14" d="M139.182,358.6l-3.682,9.722h1.35l.957-2.5h4.173l.957,2.5h1.35l-3.707-9.722Zm-.982,6.088,1.669-4.419,1.669,4.419Z" transform="translate(-102.236 -270.566)" fill="#fff"/>
    <rect id="Rettangolo_106" data-name="Rettangolo 106" width="1.277" height="9.722" transform="translate(43.354 88.034)" fill="#fff"/>
    <path id="Tracciato_15" data-name="Tracciato 15" d="M193.677,358.6H192.4v9.722h5.254v-1.178h-3.977Z" transform="translate(-145.167 -270.566)" fill="#fff"/>
    <path id="Tracciato_16" data-name="Tracciato 16" d="M241.7,361.644a2.786,2.786,0,0,0-2.946-3.044H235.1v9.722h1.277v-3.658h1.252l2.553,3.658h1.547l-2.578-3.658a2.821,2.821,0,0,0,2.553-3.02m-5.327,1.841v-3.707h2.406a1.652,1.652,0,0,1,1.62,1.841c0,1.1-.565,1.841-1.988,1.841h-2.038Z" transform="translate(-177.384 -270.566)" fill="#fff"/>
    <path id="Tracciato_17" data-name="Tracciato 17" d="M271.652,364.148h3.9v-1.2h-3.9v-3.167h4.468V358.6H270.4v9.722h5.867v-1.178h-4.615Z" transform="translate(-204.018 -270.566)" fill="#fff"/>
    <path id="Tracciato_18" data-name="Tracciato 18" d="M302.435,366.186,300.2,358.6h-1.3l2.921,9.722h1.227l2.921-9.722h-1.3Z" transform="translate(-225.522 -270.566)" fill="#fff"/>
    <path id="Tracciato_19" data-name="Tracciato 19" d="M335.51,357.9a5.034,5.034,0,1,0,4.934,5.057,4.957,4.957,0,0,0-4.934-5.057m0,8.887a3.86,3.86,0,1,1,3.658-3.83,3.733,3.733,0,0,1-3.658,3.83" transform="translate(-249.44 -270.038)" fill="#fff"/>
    <path id="Tracciato_20" data-name="Tracciato 20" d="M380.1,358.6h-1.3v9.722h5.278v-1.178H380.1Z" transform="translate(-285.807 -270.566)" fill="#fff"/>
    <path id="Tracciato_21" data-name="Tracciato 21" d="M410.894,365.007a2.259,2.259,0,0,1-4.517,0V358.6H405.1v6.407a3.535,3.535,0,0,0,7.07,0V358.6h-1.277Z" transform="translate(-305.65 -270.566)" fill="#fff"/>
    <path id="Tracciato_22" data-name="Tracciato 22" d="M439.7,359.778h2.97v8.543h1.277v-8.543h2.97V358.6H439.7Z" transform="translate(-331.756 -270.566)" fill="#fff"/>
    <rect id="Rettangolo_107" data-name="Rettangolo 107" width="1.277" height="9.722" transform="translate(116.634 88.034)" fill="#fff"/>
    <path id="Tracciato_23" data-name="Tracciato 23" d="M493.21,357.9a5.034,5.034,0,1,0,4.934,5.057,4.957,4.957,0,0,0-4.934-5.057m0,8.887a3.86,3.86,0,1,1,3.658-3.83,3.733,3.733,0,0,1-3.658,3.83" transform="translate(-368.425 -270.038)" fill="#fff"/>
    <path id="Tracciato_24" data-name="Tracciato 24" d="M542.22,365.989l-4.443-7.389H536.5v9.722h1.277v-7.414l4.493,7.414h1.252V358.6h-1.3Z" transform="translate(-404.792 -270.566)" fill="#fff"/>
    <path id="Tracciato_25" data-name="Tracciato 25" d="M25.212,181.492a16.854,16.854,0,0,0-7.929-1.792,31.548,31.548,0,0,0-14.361,3.781l3.265,6.456a19.579,19.579,0,0,1,8.911-2.455c2.651,0,4.664.638,5.99,1.939a6.547,6.547,0,0,1,1.989,4.934v.736a23.021,23.021,0,0,0-8.838-1.792,17.29,17.29,0,0,0-7.193,1.473,12.605,12.605,0,0,0-5.155,4.051A9.673,9.673,0,0,0,0,204.74a9.9,9.9,0,0,0,1.694,5.745,11.126,11.126,0,0,0,4.615,3.854,15.387,15.387,0,0,0,6.579,1.375,14.55,14.55,0,0,0,5.622-1.129,12.479,12.479,0,0,0,4.566-3.118v3.461h9.378V194.381a15.453,15.453,0,0,0-1.89-7.758,12.841,12.841,0,0,0-5.352-5.131m-2.136,22.561a5.486,5.486,0,0,1-2.8,3.633,10.272,10.272,0,0,1-5.18,1.3,6.918,6.918,0,0,1-4.2-1.227,3.889,3.889,0,0,1-1.669-3.29,4.17,4.17,0,0,1,1.866-3.461,7.33,7.33,0,0,1,4.517-1.4,20.47,20.47,0,0,1,7.463,1.326Z" transform="translate(0 -135.585)" fill="#fff"/>
    <path id="Tracciato_26" data-name="Tracciato 26" d="M191.587,136.9H179.681l-18.51,20.941V136.9H151.4v45.711h9.771v-12.79l5.72-6.113,14.042,18.9h11.931l-19.1-25.9Z" transform="translate(-114.232 -103.292)" fill="#fff"/>
    <rect id="Rettangolo_108" data-name="Rettangolo 108" width="9.722" height="34.394" transform="translate(80.227 44.901)" fill="#fff"/>
    <path id="Tracciato_27" data-name="Tracciato 27" d="M394.122,180.661a5.717,5.717,0,0,1-1.866.295,2.917,2.917,0,0,1-2.332-1.1,4.143,4.143,0,0,1-.933-2.75V161.807h7.463v-7.856h-7.463V144.5h-9.378v9.452H374.9v7.856h4.713v16.841a10.29,10.29,0,0,0,2.9,7.586A10.024,10.024,0,0,0,390,189.155a11.314,11.314,0,0,0,4.2-.835,12.754,12.754,0,0,0,3.658-2.16l-2.332-6.309a4.205,4.205,0,0,1-1.4.81" transform="translate(-282.864 -109.026)" fill="#fff"/>
    <path id="Tracciato_28" data-name="Tracciato 28" d="M489.8,207.32a13.681,13.681,0,0,1-4.787.933,8.253,8.253,0,0,1-5.818-2.16,10.05,10.05,0,0,1-3.02-5.745H502.1a26.851,26.851,0,0,0-2.062-10.974,15.609,15.609,0,0,0-5.99-7.119A17.029,17.029,0,0,0,484.8,179.8a18.064,18.064,0,0,0-9.083,2.332,17.144,17.144,0,0,0-6.457,6.383A17.94,17.94,0,0,0,466.9,197.7a17.743,17.743,0,0,0,2.455,9.3,17.566,17.566,0,0,0,6.677,6.456,19.007,19.007,0,0,0,9.28,2.332,22.179,22.179,0,0,0,7.807-1.473,16.089,16.089,0,0,0,6.211-3.854l-5.45-5.6a11.874,11.874,0,0,1-4.075,2.455m-10.458-18.068a8.314,8.314,0,0,1,5.524-1.964,7.331,7.331,0,0,1,5.254,1.964,9.271,9.271,0,0,1,2.651,5.278H476.2a9.847,9.847,0,0,1,3.142-5.278" transform="translate(-352.279 -135.66)" fill="#fff"/>
    <path id="Tracciato_29" data-name="Tracciato 29" d="M366.863,0H341.994l-4.051,28.895L326.7,30.441v9.722h9.722l1.571-11.244,28.87-4.026Z" transform="translate(-246.497)" fill="#fff"/>
  </g>
</svg>
